<?xml version="1.0" encoding="UTF-8"?>
<svg version="1.1" xmlns="http://www.w3.org/2000/svg" width="2048" height="2048">
<path d="M0 0 C1.22659332 -0.00367584 2.45318665 -0.00735168 3.71694946 -0.01113892 C25.83496356 -0.04572519 47.75810469 1.06310407 69.625 4.5 C70.30229156 4.60509888 70.97958313 4.71019775 71.67739868 4.81848145 C116.15319776 11.76528262 158.93955731 24.8533446 199.5625 44.3125 C200.42568848 44.72290527 201.28887695 45.13331055 202.17822266 45.55615234 C240.43243563 63.85463531 276.84983355 87.95827432 307.9375 116.8984375 C309.98942302 118.78547385 312.06776757 120.60505678 314.18359375 122.41796875 C319.05646799 126.66787408 323.62122932 131.22071351 328.1809082 135.80053711 C329.62275221 137.24774385 331.06987116 138.68952026 332.51757812 140.13085938 C337.74498512 145.35418193 342.78310824 150.67564984 347.5625 156.3125 C348.43953553 157.32210883 349.31710329 158.33125568 350.1953125 159.33984375 C410.58760896 229.8606288 448.07040694 317.07509692 459.5625 418.3125 C459.65821289 419.35865479 459.75392578 420.40480957 459.85253906 421.48266602 C460.85587407 434.17629227 460.80616665 446.89914409 460.8125 459.625 C460.81351212 461.45488968 460.81351212 461.45488968 460.81454468 463.32174683 C460.77098535 513.03677729 453.12046336 560.99967919 437.5625 608.3125 C437.28470703 609.17423828 437.00691406 610.03597656 436.72070312 610.92382812 C418.24612121 667.97369843 386.42209893 722.78467606 345.7578125 766.90625 C344.55475932 768.22489904 343.35949636 769.55147158 342.20385742 770.91186523 C336.9014336 777.13071718 331.15090761 782.87568843 325.36547852 788.63989258 C323.628564 790.371447 321.89706111 792.10828359 320.16601562 793.84570312 C314.46773457 799.54771175 308.733263 805.1169578 302.5625 810.3125 C301.54076097 811.20078222 300.51988111 812.09005398 299.5 812.98046875 C291.74574213 819.63139471 283.74955599 825.86746921 275.49511719 831.88574219 C273.64297786 833.25308709 271.82408324 834.65584449 270.0078125 836.0703125 C264.43323319 840.31584234 259.91664478 843.55975386 252.66015625 842.81640625 C249.80475576 842.13047205 247.78267758 841.24620305 245.5625 839.3125 C244.66179646 836.61038939 244.34092475 834.74181069 244.25 831.9375 C244.21261719 831.18726563 244.17523437 830.43703125 244.13671875 829.6640625 C245.06919258 824.51406944 249.12714587 821.67765464 253.23046875 818.82666016 C253.81441406 818.4301123 254.39835937 818.03356445 255 817.625 C256.26038236 816.74530321 257.51946848 815.86374671 258.77734375 814.98046875 C259.41140137 814.53622559 260.04545898 814.09198242 260.69873047 813.63427734 C277.28875537 801.86870296 293.31779009 788.26397047 307.2578125 773.45703125 C308.5625 772.3125 308.5625 772.3125 310.5625 772.3125 C310.8318335 771.71574463 311.10116699 771.11898926 311.37866211 770.50415039 C312.56262188 768.31227436 313.7129662 766.95692964 315.50390625 765.24609375 C316.08293701 764.68398193 316.66196777 764.12187012 317.25854492 763.54272461 C318.18244019 762.65532593 318.18244019 762.65532593 319.125 761.75 C324.22148687 756.75594856 328.94454404 751.67109338 333.37109375 746.0625 C335.33522339 743.59770986 337.36851158 741.21210216 339.43823242 738.8359375 C399.36308435 669.68123185 432.69369228 575.57174364 438.05859375 430.6875 C431.72358559 347.2664878 401.97070317 266.16581368 351.5625 199.3125 C351.10504395 198.70341797 350.64758789 198.09433594 350.17626953 197.46679688 C342.49058339 187.26440866 334.51907823 177.32438922 325.8984375 167.89453125 C324.6148994 166.47577091 323.33781336 165.05070128 322.09179688 163.59887695 C317.08322736 157.76854302 311.74411294 152.31053185 306.3125 146.875 C305.43464844 145.98490234 304.55679688 145.09480469 303.65234375 144.17773438 C298.40706195 138.92093292 292.99516012 134.08322569 287.19458008 129.44799805 C284.71261829 127.43429618 282.33306488 125.34855811 279.96484375 123.203125 C275.53684804 119.22824938 270.89755004 115.61257406 266.125 112.0625 C265.25447998 111.41410156 264.38395996 110.76570313 263.48706055 110.09765625 C183.40035279 50.90660915 85.87325661 19.47550555 -50.4375 25.3125 C-51.55302246 25.45171875 -52.66854492 25.5909375 -53.81787109 25.734375 C-136.48129801 36.44380683 -217.481242 70.12508735 -280.64257812 124.80493164 C-281.99116553 125.93762033 -283.3639992 127.04154053 -284.74804688 128.13061523 C-292.45320957 134.23526744 -299.36276732 140.96365331 -306.27294922 147.94213867 C-308.19312183 149.8806756 -310.12128456 151.81098211 -312.05078125 153.74023438 C-318.05579375 159.76238138 -323.95419884 165.80515116 -329.4375 172.3125 C-330.36224887 173.3614377 -331.2892751 174.40837279 -332.21875 175.453125 C-397.66157226 249.90688371 -436.46662993 350.28366976 -438.11262512 484.77720642 C-436.18147235 514.60687883 -431.29255634 544.47488664 -423.4375 573.3125 C-423.00896729 574.89272949 -423.00896729 574.89272949 -422.57177734 576.50488281 C-405.65344189 637.98123302 -376.39351337 694.3749262 -335.4375 743.3125 C-334.90850098 743.94591309 -334.37950195 744.57932617 -333.83447266 745.23193359 C-328.51810634 751.57611989 -323.16970382 757.77513823 -317.21484375 763.53515625 C-315.42701951 765.32298049 -313.81215432 767.1886614 -312.1875 769.125 C-307.86571065 774.14258763 -302.92829775 778.47573499 -298.00927734 782.88916016 C-296.48642997 784.26819094 -294.98435588 785.66623683 -293.48828125 787.07421875 C-286.70304928 793.44182815 -279.60791472 799.25449191 -272.23291016 804.92431641 C-270.41971244 806.32625307 -268.62012517 807.74396401 -266.82421875 809.16796875 C-260.50902667 814.17343222 -254.15633685 819.04135947 -247.546875 823.65625 C-245.07448503 825.59753398 -243.61166179 827.23107677 -243.1015625 830.3984375 C-243.03110631 834.52717052 -243.0700943 836.72465089 -245.3125 840.3125 C-248.16144602 842.99386096 -249.80315356 843.50001707 -253.625 843.625 C-254.36105469 843.66238281 -255.09710937 843.69976563 -255.85546875 843.73828125 C-262.83008665 842.58815515 -269.01944058 836.86412956 -274.5625 832.75 C-275.3978125 832.13229736 -276.233125 831.51459473 -277.09375 830.87817383 C-283.090874 826.40512663 -288.8646198 821.74021245 -294.51171875 816.8359375 C-297.37583734 814.36568301 -300.29915224 811.99052228 -303.25 809.625 C-307.27046361 806.35618828 -310.94836499 802.91504498 -314.5546875 799.19921875 C-316.38480865 797.36530067 -318.27867186 795.68001852 -320.25 794 C-327.570685 787.6880708 -334.37682305 780.73732046 -340.64453125 773.3828125 C-342.76896824 770.9297589 -344.97938637 768.56546853 -347.1875 766.1875 C-352.41774047 760.4452631 -357.18609608 754.41279908 -361.921875 748.26074219 C-363.50010723 746.23202227 -365.10621534 744.22810231 -366.71875 742.2265625 C-404.68125392 694.8098779 -430.82220795 637.74188327 -446.4375 579.3125 C-446.72995605 578.22517578 -447.02241211 577.13785156 -447.32373047 576.01757812 C-450.55386362 563.82796545 -453.05916383 551.56390428 -455.125 539.125 C-455.31545898 537.99449219 -455.50591797 536.86398437 -455.70214844 535.69921875 C-459.38082504 512.33031329 -460.94963426 489.04620465 -460.82861328 465.40844727 C-460.81153991 462.05017654 -460.82171106 458.69262083 -460.83893585 455.33437443 C-461.05055999 406.50508942 -452.66389769 358.69058393 -437.4375 312.3125 C-437.16502441 311.46139648 -436.89254883 310.61029297 -436.61181641 309.73339844 C-419.76611545 257.26594914 -391.06975496 206.36463241 -354.82910156 164.91455078 C-353.31626908 163.17293557 -351.82476924 161.41451209 -350.3359375 159.65234375 C-345.72942555 154.20957929 -341.15120952 148.83563895 -336.01171875 143.8828125 C-334.22437556 142.0999044 -332.58482352 140.22528625 -330.9375 138.3125 C-325.92229452 132.51541394 -320.52328001 127.30708627 -314.71484375 122.3125 C-312.54001693 120.40253202 -310.42305537 118.43931081 -308.31079102 116.46069336 C-301.94032079 110.51582079 -295.26605143 105.10539821 -288.35644531 99.80322266 C-286.3712091 98.26100226 -284.41472112 96.68730566 -282.4609375 95.10546875 C-263.48356009 79.85070429 -242.79816076 66.94838458 -221.4375 55.3125 C-220.59977051 54.85182129 -219.76204102 54.39114258 -218.89892578 53.91650391 C-170.08829825 27.18976604 -116.46382763 10.80362092 -61.4375 3.3125 C-59.68397217 3.0647583 -59.68397217 3.0647583 -57.89501953 2.81201172 C-38.63266246 0.20213372 -19.41238922 0.02787256 0 0 Z " fill="#FEAF04" transform="translate(1044.4375,340.6875)"https://robotics-smalabsa.github.io/peta/>
<path d="M0 0 C0.81645148 -0.00382555 1.63290297 -0.00765109 2.4740954 -0.01159257 C5.21941315 -0.02194006 7.96452243 -0.01792712 10.70985413 -0.01396179 C12.67422683 -0.0183073 14.63859784 -0.0234899 16.60296631 -0.02944946 C21.94588107 -0.04286799 27.28872522 -0.04341497 32.63165355 -0.04088616 C37.08762642 -0.0398184 41.54358489 -0.04469482 45.99955469 -0.04949158 C56.50944405 -0.06059661 67.01929767 -0.06101856 77.52919006 -0.05497742 C88.38157495 -0.04893545 99.23383025 -0.06125205 110.08619303 -0.08254749 C119.39495228 -0.10014416 128.70367022 -0.10616791 138.01244551 -0.10290974 C143.57598965 -0.10109368 149.13944137 -0.10376525 154.7029705 -0.11762428 C159.93389566 -0.13016659 165.16461832 -0.1282927 170.39554024 -0.11521339 C172.31764417 -0.11284021 174.23976219 -0.1156087 176.16184998 -0.12383652 C178.7813959 -0.13424311 181.4002547 -0.12625264 184.01977539 -0.11352539 C185.16651329 -0.12458682 185.16651329 -0.12458682 186.33641762 -0.13587171 C189.48710591 -0.1035641 191.72509707 0.07007978 194.51422977 1.59658527 C197.65807657 4.9520747 197.19776781 8.6255654 197.19642735 12.98610973 C197.19758119 13.67673936 197.19873503 14.36736898 197.19992384 15.07892677 C197.20258625 17.41022632 197.19807141 19.74145783 197.19363403 22.07275391 C197.19406981 23.75413699 197.19494484 25.43552 197.1962232 27.11690265 C197.19846686 31.75057376 197.19444862 36.38422191 197.18944514 41.0178901 C197.18513899 46.00970404 197.18658718 51.00151663 197.18734741 55.99333191 C197.18787254 64.64643347 197.18472688 73.29952751 197.17910957 81.95262718 C197.1709931 94.4636592 197.1683792 106.97468756 197.16712158 119.48572192 C197.1649313 139.78254165 197.15827184 160.07935737 197.14881897 180.37617493 C197.13964425 200.09622681 197.13256371 219.8162776 197.12831116 239.53633118 C197.12791707 241.35870972 197.12791707 241.35870972 197.12751503 243.21790399 C197.12621002 249.31260908 197.1249463 255.40731418 197.12370312 261.50201929 C197.11333124 312.08824777 197.09571355 362.67447189 197.07337952 413.26069641 C198.32473694 413.25022278 199.57609436 413.23974915 200.8653717 413.22895813 C205.50954831 413.19274876 210.15371245 413.16979246 214.79798889 413.15083313 C216.80777586 413.14077771 218.81754822 413.12713156 220.82728577 413.1098175 C223.7166454 413.08554917 226.60581153 413.0742087 229.49525452 413.06538391 C230.39330811 413.05506134 231.29136169 413.04473877 232.21662903 413.03410339 C233.47748322 413.0338768 233.47748322 413.0338768 234.7638092 413.03364563 C235.50105225 413.02920441 236.23829529 413.02476318 236.99787903 413.02018738 C239.41602163 413.30040179 241.00138003 413.99829145 243.07337952 415.26069641 C245.77461643 419.31683946 245.62703589 423.55461725 245.07337952 428.26069641 C243.76087952 431.26069641 243.76087952 431.26069641 242.07337952 433.26069641 C239.11855529 434.24563782 237.20713293 434.38780622 234.12669563 434.39212418 C233.09968768 434.39596532 232.07267973 434.39980647 231.01455033 434.40376401 C229.31686581 434.40246429 229.31686581 434.40246429 227.58488464 434.40113831 C225.78548488 434.40559499 225.78548488 434.40559499 223.94973361 434.41014171 C220.61408624 434.41732973 217.27849035 434.42000162 213.94283891 434.42073917 C210.34766451 434.42258862 206.75250131 434.43013535 203.15733337 434.43687439 C195.29379127 434.45046213 187.43025426 434.45648296 179.56670237 434.46088505 C174.65844394 434.46364642 169.75018748 434.46788356 164.84193039 434.47238922 C151.25713029 434.48458189 137.67233177 434.49488158 124.08752632 434.49826431 C123.21791179 434.49848388 122.34829725 434.49870344 121.45233076 434.49892966 C120.58061765 434.49914794 119.70890454 434.49936622 118.81077588 434.49959111 C117.04430652 434.50003458 115.27783716 434.50048114 113.5113678 434.50093079 C112.19701877 434.50126293 112.19701877 434.50126293 110.85611723 434.50160179 C96.65270347 434.50555121 82.44934097 434.52300965 68.24594702 434.54629031 C53.66979589 434.5699895 39.09367051 434.58246549 24.5174998 434.58363223 C16.33094992 434.58454974 8.14446684 434.59032114 -0.04206467 434.60845184 C-7.01192495 434.62383344 -13.98169778 434.62898477 -20.95157181 434.62071374 C-24.50864604 434.61680047 -28.06554406 434.61776962 -31.62259674 434.63177109 C-35.47652721 434.64680266 -39.33020814 434.63866364 -43.18415833 434.62818909 C-44.31148656 434.63624549 -45.43881479 434.6443019 -46.60030448 434.65260243 C-47.63252793 434.64601259 -48.66475137 434.63942275 -49.72825432 434.63263321 C-50.61783172 434.6332303 -51.50740911 434.63382739 -52.4239434 434.63444257 C-55.5351221 434.16982367 -57.41258823 433.13054989 -59.92662048 431.26069641 C-60.85012775 428.4901746 -61.08991633 426.69380883 -61.11412048 423.82319641 C-61.12830017 423.06136047 -61.14247986 422.29952454 -61.15708923 421.51460266 C-60.89253535 418.92735538 -60.37905946 417.41873666 -58.92662048 415.26069641 C-56.06698976 413.51965499 -53.94333888 413.01360775 -50.61705017 413.03364563 C-49.77648071 413.03379669 -48.93591125 413.03394775 -48.06987 413.03410339 C-47.17181641 413.04442596 -46.27376282 413.05474854 -45.34849548 413.06538391 C-43.95863434 413.06962875 -43.95863434 413.06962875 -42.54069519 413.07395935 C-39.58587139 413.0851403 -36.63135243 413.11024115 -33.67662048 413.13569641 C-31.67141653 413.1457289 -29.66620782 413.15485428 -27.66099548 413.16304016 C-22.74941997 413.18507284 -17.83807189 413.21958846 -12.92662048 413.26069641 C-12.92737992 412.40101564 -12.92813936 411.54133487 -12.92892182 410.65560317 C-12.9736447 359.74266456 -13.00797676 308.82972803 -13.02875114 257.91677372 C-13.03125266 251.80827005 -13.03384129 245.69976643 -13.03648376 239.59126282 C-13.03700839 238.37513185 -13.03753301 237.15900088 -13.03807352 235.90601745 C-13.04678427 216.19550764 -13.06255792 196.48500945 -13.08092608 176.77450654 C-13.09960652 156.56082613 -13.11073327 136.34715183 -13.11479747 116.13346314 C-13.11754639 103.65313372 -13.12623928 91.17283716 -13.14245342 78.69251785 C-13.15299741 70.14287385 -13.15622699 61.59324692 -13.15362324 53.04359689 C-13.15233791 48.10547903 -13.15435547 43.16741871 -13.16503143 38.22931099 C-13.17472498 33.71280546 -13.17528088 29.19639648 -13.16841827 24.67988661 C-13.16756942 23.0418701 -13.17013942 21.4038477 -13.17638685 19.76584288 C-13.18436138 17.54682816 -13.18011843 15.32816636 -13.17271614 13.10915756 C-13.17347558 11.87430705 -13.17423502 10.63945653 -13.17501748 9.36718631 C-12.93452995 6.3596134 -12.625359 4.72009708 -10.92662048 2.26069641 C-7.19562197 -0.22663593 -4.31807309 -0.02128461 0 0 Z M11.07337952 20.26069641 C11.07337952 149.95069641 11.07337952 279.64069641 11.07337952 413.26069641 C64.53337952 413.26069641 117.99337952 413.26069641 173.07337952 413.26069641 C173.07337952 283.57069641 173.07337952 153.88069641 173.07337952 20.26069641 C119.61337952 20.26069641 66.15337952 20.26069641 11.07337952 20.26069641 Z " fill="#FA8500" transform="translate(931.9266204833984,1025.7393035888672)"https://robotics-smalabsa.github.io/peta/>
<path d="M0 0 C0.80772767 -0.0060911 1.61545534 -0.01218221 2.44765961 -0.01845789 C5.1576418 -0.03512367 7.86715596 -0.03030701 10.57717896 -0.0255127 C12.51875295 -0.03285099 14.46032257 -0.04143651 16.40188599 -0.05117798 C21.67878171 -0.0734288 26.95552144 -0.07632284 32.23245764 -0.07443047 C36.63610861 -0.07431092 41.03972634 -0.08286859 45.44336808 -0.09120798 C55.83206969 -0.11045519 66.22069095 -0.11332119 76.60940552 -0.10656738 C87.32950619 -0.0999264 98.04926279 -0.12279036 108.76929367 -0.15988111 C117.9702614 -0.19056184 127.17111836 -0.20193987 136.37213624 -0.1980443 C141.86872916 -0.195975 147.36505443 -0.20148401 152.86159897 -0.22593689 C158.03110267 -0.24817426 163.20004652 -0.24635109 168.36955261 -0.22600937 C170.26663267 -0.22259392 172.16375019 -0.22771138 174.06077957 -0.24199295 C176.65152597 -0.26015085 179.24036617 -0.2474633 181.83105469 -0.22705078 C182.58125692 -0.23956863 183.33145916 -0.25208648 184.10439479 -0.26498365 C187.97395201 -0.19964903 190.49627888 0.3746793 193.49322701 2.74575043 C196.88905953 6.27395741 197.16710826 8.64971781 197.18968201 13.3531189 C197.20041496 14.88825638 197.20041496 14.88825638 197.21136475 16.45440674 C197.21405365 17.57655579 197.21674255 18.69870483 197.21951294 19.8548584 C197.22608414 21.03720062 197.23265533 22.21954285 197.23942566 23.43771362 C197.2591695 27.35816807 197.27082392 31.27860915 197.28079224 35.19909668 C197.2848405 36.54958237 197.28895744 37.90006786 197.29314232 39.25055313 C197.31218621 45.59424268 197.32642018 51.93792063 197.33475429 58.28163326 C197.34453093 65.60215503 197.37086455 72.92237477 197.41125518 80.2427901 C197.44141426 85.90318174 197.45622285 91.56348676 197.4595353 97.22395718 C197.46188562 100.60395856 197.47084331 103.98363696 197.49599648 107.36355209 C197.52025526 111.13433869 197.51944688 114.90433072 197.51248169 118.6751709 C197.53169678 120.35232178 197.53169678 120.35232178 197.55130005 122.06335449 C197.50022565 129.6325135 197.50022565 129.6325135 195.13813782 133.56436157 C191.33858614 136.88239527 188.07450817 136.54273862 183.24287415 136.5415802 C182.42798265 136.54525689 181.61309116 136.54893358 180.77350599 136.55272168 C178.02747469 136.56378456 175.28148119 136.56760675 172.53543091 136.57141113 C170.57282897 136.57767377 168.61022822 136.58432039 166.64762878 136.59132385 C161.30461082 136.60875105 155.96160182 136.61929008 150.61856246 136.62752938 C147.28272263 136.6326754 143.9468856 136.63875128 140.61104774 136.64504051 C130.18060732 136.66409652 119.75017399 136.67832735 109.31971949 136.68665248 C97.26702865 136.69643045 85.21452118 136.72276292 73.16189498 136.76315337 C63.85399631 136.79327882 54.54615031 136.80811792 45.23820382 136.81143349 C39.675125 136.81378787 34.11224199 136.82279876 28.54921532 136.84789467 C23.31663151 136.8711182 18.08437325 136.87543167 12.85175133 136.86513329 C10.93005798 136.86463644 9.00834891 136.8710006 7.08670425 136.88468933 C4.46510921 136.90232088 1.84469358 136.89534562 -0.77690125 136.88215637 C-1.92029306 136.89861024 -1.92029306 136.89861024 -3.08678371 136.91539651 C-7.99171776 136.85573014 -10.5215622 135.90287079 -13.95748901 132.39440918 C-15.18901461 129.93135799 -15.08873603 128.31112116 -15.09793091 125.55595398 C-15.10364105 124.53390366 -15.1093512 123.51185333 -15.11523438 122.45883179 C-15.11635223 121.33308746 -15.11747009 120.20734314 -15.11862183 119.04748535 C-15.12358673 117.86528915 -15.12855164 116.68309296 -15.13366699 115.46507263 C-15.14578836 112.21701922 -15.15323727 108.96900182 -15.15767765 105.72092986 C-15.16060782 103.69166456 -15.16471256 101.66240492 -15.16918182 99.63314247 C-15.18285924 93.28410658 -15.19252431 86.93508361 -15.19638371 80.586034 C-15.20086319 73.25706716 -15.21840476 65.92828695 -15.24738431 58.59937686 C-15.26900529 52.93475786 -15.27908824 47.27019134 -15.28042483 41.60553151 C-15.28147271 38.22222525 -15.28737633 34.83909435 -15.30524445 31.45583153 C-15.32226306 27.68024873 -15.32043458 23.905122 -15.31393433 20.1295166 C-15.32314911 19.00984497 -15.33236389 17.89017334 -15.34185791 16.73657227 C-15.33628876 15.70606247 -15.3307196 14.67555267 -15.32498169 13.61381531 C-15.32644825 12.72135196 -15.32791481 11.82888861 -15.32942581 10.90938091 C-14.74632833 6.96657745 -12.96956757 4.46498672 -10.26733208 1.60655975 C-6.91526147 -0.15252699 -3.69590648 -0.0260931 0 0 Z M6.04251099 21.39440918 C6.04251099 52.41440918 6.04251099 83.43440918 6.04251099 115.39440918 C62.14251099 115.39440918 118.24251099 115.39440918 176.04251099 115.39440918 C176.04251099 84.37440918 176.04251099 53.35440918 176.04251099 21.39440918 C119.94251099 21.39440918 63.84251099 21.39440918 6.04251099 21.39440918 Z " fill="#FF9900" transform="translate(932.9574890136719,866.6055908203125)"https://robotics-smalabsa.github.io/peta/>
<path d="M0 0 C0.84449703 -0.00384115 1.68899406 -0.00768229 2.55908191 -0.01163983 C3.49213724 -0.01077335 4.42519256 -0.00990687 5.38652229 -0.00901413 C6.37362855 -0.01198525 7.36073481 -0.01495637 8.37775338 -0.01801753 C11.70654131 -0.02673346 15.03529341 -0.02821521 18.36409187 -0.02970505 C20.74210373 -0.03433114 23.12011484 -0.03935551 25.49812508 -0.04475021 C31.97327402 -0.0578955 38.44841606 -0.06435961 44.92357588 -0.06876087 C48.96495858 -0.07152163 53.00633888 -0.07575866 57.04771996 -0.08026505 C68.23225632 -0.09245866 79.41679075 -0.10275795 90.60133362 -0.10614014 C91.67546177 -0.10646949 91.67546177 -0.10646949 92.77128948 -0.10680549 C93.48910885 -0.10702377 94.20692823 -0.10724204 94.94649971 -0.10746694 C96.40112678 -0.10791041 97.85575386 -0.10835697 99.31038094 -0.10880661 C100.03192947 -0.10902804 100.753478 -0.10924947 101.49689163 -0.10947761 C113.19203736 -0.11342674 124.88712081 -0.13088383 136.58224247 -0.15416613 C148.58305929 -0.17786462 160.58384484 -0.19034129 172.58468544 -0.19150805 C179.32531507 -0.19242564 186.06586356 -0.19819886 192.80647087 -0.21632767 C199.14458769 -0.23274952 205.48255017 -0.23499255 211.82068062 -0.22618866 C214.1507642 -0.22541515 216.48085589 -0.22980206 218.81091881 -0.23964691 C221.98441833 -0.25227215 225.15736335 -0.24654095 228.33085823 -0.23606491 C229.25945211 -0.24412132 230.188046 -0.25217772 231.14477909 -0.26047826 C237.33130156 -0.21249942 237.33130156 -0.21249942 240.52659988 1.46689606 C242.93396224 4.21324814 243.18413682 6.98928394 243.2981739 10.50642776 C243.35424812 11.63177933 243.35424812 11.63177933 243.41145515 12.77986526 C242.77397898 16.30060522 241.61903912 17.68990717 238.9856739 20.13142776 C235.75684843 20.89234304 232.57288161 20.80576476 229.26838875 20.76634598 C228.27140654 20.77414593 227.27442432 20.78194588 226.24723053 20.7899822 C222.89665153 20.8099728 219.54719942 20.79410932 216.1966114 20.77840042 C213.79859438 20.78517336 211.40058256 20.79407466 209.00258064 20.80495071 C203.15961062 20.82541532 197.31693473 20.82237581 191.4739728 20.80788751 C186.7257915 20.79660074 181.97770021 20.7950619 177.22950935 20.80050659 C176.55401806 20.80127276 175.87852677 20.80203892 175.18256605 20.8028283 C173.81036708 20.80442691 172.43816814 20.80604798 171.06596923 20.80769126 C158.1953729 20.82195291 145.32495456 20.80554962 132.45438743 20.77868943 C121.40808648 20.75635019 110.36204824 20.7602302 99.31575203 20.78328323 C86.49158654 20.81003401 73.6675771 20.82057958 60.8433876 20.80522192 C59.47620458 20.80362915 58.10902153 20.8020573 56.74183846 20.80050659 C55.7327883 20.79934953 55.7327883 20.79934953 54.70335329 20.79816908 C49.96024354 20.79384988 45.21723269 20.80114331 40.47413826 20.81290436 C34.09157855 20.82838259 27.70939879 20.81738075 21.32688332 20.78843307 C18.98068507 20.78180649 16.63444514 20.78374656 14.28826332 20.7947464 C11.09259163 20.80835066 7.89852748 20.79134671 4.70295906 20.76634598 C3.30044175 20.78307639 3.30044175 20.78307639 1.86959076 20.80014479 C-4.39829023 20.70460953 -4.39829023 20.70460953 -7.59065056 17.7343235 C-9.75771835 13.77228906 -9.69148456 10.52897452 -9.0143261 6.13142776 C-6.81042511 1.32291652 -5.17980121 0.00881797 0 0 Z " fill="#ED6700" transform="translate(907.014326095581,1485.8685722351074)"https://robotics-smalabsa.github.io/peta/>
<path d="M0 0 C3.06590765 1.84374629 3.84545919 2.53637758 5 6 C5.23828125 8.0859375 5.23828125 8.0859375 5.3125 10.375 C5.36857422 11.50035156 5.36857422 11.50035156 5.42578125 12.6484375 C4.78259534 16.20071195 3.63266984 17.47125134 1 20 C-2.57396518 22.1361631 -6.30211686 23.90540538 -10.0625 25.6875 C-12.25213424 26.75219655 -14.44092815 27.81862293 -16.62890625 28.88671875 C-18.25530029 29.6763501 -18.25530029 29.6763501 -19.91455078 30.48193359 C-24.15654427 32.5690293 -28.33122211 34.77117988 -32.5 37 C-40.62847895 41.32477324 -48.85229374 45.44237545 -57.09765625 49.5390625 C-63.27460382 52.61570305 -69.40715073 55.76023452 -75.5 59 C-83.62958833 63.32276566 -91.85222467 67.44234114 -100.09765625 71.5390625 C-106.27460855 74.61570541 -112.40707297 77.76037481 -118.5 81 C-128.60101844 86.36831244 -138.83025746 91.47638944 -149.08520508 96.54345703 C-151.13785557 97.56918053 -153.18121728 98.61359842 -155.2175293 99.67138672 C-156.27238525 100.21553223 -157.32724121 100.75967773 -158.4140625 101.3203125 C-159.84226318 102.06692139 -159.84226318 102.06692139 -161.29931641 102.82861328 C-165.25043417 104.54235971 -168.80317119 105.02989664 -173 104 C-175.87029869 102.20606332 -177.49131638 101.01736724 -179 98 C-179.23828125 96.01171875 -179.23828125 96.01171875 -179.3125 93.6875 C-179.34988281 92.92824219 -179.38726562 92.16898438 -179.42578125 91.38671875 C-178.80760094 87.92150617 -177.44902143 86.55756986 -175 84 C-172.04237708 82.09184468 -168.92399319 80.55516591 -165.76953125 79 C-164.84398941 78.53174301 -163.91844757 78.06348602 -162.96485901 77.58103943 C-159.91940527 76.04317225 -156.86601751 74.52178396 -153.8125 73 C-151.67400649 71.92321743 -149.53615587 70.8451572 -147.39892578 69.76586914 C-143.03249635 67.56195142 -138.66347616 65.36330366 -134.29248047 63.16845703 C-126.12056263 59.06006783 -117.9820854 54.88727386 -109.84671021 50.7071228 C-105.68068534 48.5671955 -101.51217997 46.4321125 -97.34375 44.296875 C-96.50981216 43.86960617 -95.67587433 43.44233734 -94.81666565 43.00212097 C-88.39053784 39.71036203 -81.9613188 36.4246778 -75.53125 33.140625 C-74.56767578 32.64825348 -73.60410156 32.15588196 -72.61132812 31.64859009 C-67.79895308 29.18984266 -62.98507391 26.73413652 -58.16796875 24.28466797 C-49.61973872 19.93290095 -41.09931743 15.54507109 -32.65625 10.9921875 C-30.55054846 9.86683543 -28.44409997 8.74289371 -26.33746338 7.61929321 C-24.44836485 6.60200722 -22.57380893 5.56113918 -20.69873047 4.51831055 C-13.91416925 0.89971671 -7.78174721 -1.75150554 0 0 Z " fill="#FFB800" transform="translate(535,854)"https://robotics-smalabsa.github.io/peta/>
<path d="M0 0 C4.60039351 1.67178159 8.74823837 3.96500961 13 6.375 C14.1866662 7.02323342 15.37484356 7.66870751 16.56445312 8.31152344 C18.941262 9.59744915 21.31223775 10.89322272 23.6796875 12.19628906 C28.22916353 14.66772501 32.85251074 16.96995925 37.5 19.25 C44.58612858 22.76035033 51.59227156 26.40143725 58.57617188 30.11035156 C65.00145595 33.50777992 71.49109303 36.76612804 78 40 C86.03085555 43.99006585 93.99975784 48.07259275 101.91796875 52.28125 C107.89926858 55.44901116 113.9380556 58.48982214 120 61.5 C129.33764994 66.13985647 138.58524223 70.92886971 147.78808594 75.83007812 C150.00000538 77.00000284 152.22101022 78.15069351 154.4453125 79.296875 C155.14148682 79.65885986 155.83766113 80.02084473 156.55493164 80.39379883 C157.8531856 81.06873932 159.15429161 81.73823407 160.45874023 82.40112305 C163.57611696 84.0338255 164.99943879 84.99915819 167 88 C167.30078125 90.55859375 167.30078125 90.55859375 167.3125 93.4375 C167.32925781 94.38496094 167.34601563 95.33242188 167.36328125 96.30859375 C166.94224688 99.42786993 166.17955126 100.75919671 164 103 C157.58290028 105.13903324 152.54451104 104.54089293 146.5390625 101.7265625 C144.55804593 100.71134576 142.58700284 99.67649254 140.625 98.625 C139.04452881 97.8062439 139.04452881 97.8062439 137.43212891 96.97094727 C134.27822041 95.3319927 131.13800449 93.66916214 128 92 C126.32860959 91.12017257 124.65677442 90.24118922 122.984375 89.36328125 C120.68229277 88.15315673 118.38147312 86.94093734 116.08447266 85.72119141 C110.10342623 82.55059232 104.06301196 79.51046116 98 76.5 C91.16162062 73.10454644 84.36682121 69.64588708 77.625 66.0625 C70.47161779 62.26112711 63.25455463 58.60437422 56 55 C48.01954064 51.03493336 40.09941749 46.98096749 32.23364258 42.79345703 C25.77513225 39.37050805 19.23746332 36.11877203 12.6875 32.875 C-13.19500478 20.00224148 -13.19500478 20.00224148 -16 15 C-16.83517317 10.37268922 -16.49187538 6.22968844 -14.75 1.875 C-10.16451771 -1.2514652 -5.37429026 -0.72975572 0 0 Z " fill="#FC8500" transform="translate(1544,854)"https://robotics-smalabsa.github.io/peta/>
<path d="M0 0 C2.65563802 1.8968843 3.57242527 3.14485055 5 6 C5.36659068 11.59050785 5.29079704 14.30917088 2 19 C0.46227967 20.64794154 -1.12498669 22.2505695 -2.75 23.8125 C-5.77118321 26.76828963 -8.70053117 29.71675702 -11.4375 32.9375 C-14.74346118 36.80617798 -18.33144678 40.36064305 -21.95068359 43.93115234 C-25.19984173 47.15350409 -28.22436334 50.49331816 -31.19140625 53.97265625 C-34.17528004 57.31743054 -37.40619732 60.41335157 -40.59375 63.5625 C-42.65449345 65.65000635 -44.59515626 67.77169223 -46.5 70 C-49.98452107 74.07623219 -53.78081981 77.79550873 -57.59375 81.5625 C-59.65449345 83.65000635 -61.59515626 85.77169223 -63.5 88 C-66.98452107 92.07623219 -70.78081981 95.79550873 -74.59375 99.5625 C-76.65449345 101.65000635 -78.59515626 103.77169223 -80.5 106 C-83.9780005 110.06860436 -87.76532449 113.78218653 -91.57421875 117.5390625 C-93.75403973 119.75047509 -95.79801083 122.01379047 -97.8125 124.375 C-104.25057056 131.75413424 -104.25057056 131.75413424 -108.16796875 132.3046875 C-112.28733669 132.42564773 -115.48234835 132.33518524 -119 130 C-121.88154496 125.66378444 -121.88593564 120.99824361 -121 116 C-119.67749023 114.02075195 -119.67749023 114.02075195 -117.93359375 112.17578125 C-117.29800537 111.49112793 -116.66241699 110.80647461 -116.00756836 110.10107422 C-115.3450708 109.40771973 -114.68257324 108.71436523 -114 108 C-112.76006814 106.6552692 -111.52048133 105.31022015 -110.28125 103.96484375 C-109.02221942 102.62109579 -107.76179873 101.27864896 -106.5 99.9375 C-105.87480469 99.26912109 -105.24960938 98.60074219 -104.60546875 97.91210938 C-101.53006192 94.63613254 -98.42308881 91.40430258 -95.234375 88.23828125 C-92.96551534 85.98503594 -90.80075246 83.70639581 -88.75 81.25 C-85.81720396 77.84161542 -82.69927485 74.65600486 -79.5 71.5 C-75.75968201 67.81006515 -72.21760655 64.02496307 -68.80859375 60.02734375 C-65.82471996 56.68256946 -62.59380268 53.58664843 -59.40625 50.4375 C-57.34550655 48.34999365 -55.40484374 46.22830777 -53.5 44 C-50.01547893 39.92376781 -46.21918019 36.20449127 -42.40625 32.4375 C-40.34550655 30.34999365 -38.40484374 28.22830777 -36.5 26 C-33.0219995 21.93139564 -29.23467551 18.21781347 -25.42578125 14.4609375 C-23.24596027 12.24952491 -21.20198917 9.98620953 -19.1875 7.625 C-13.24700368 0.84762083 -9.24033398 -1.45225588 0 0 Z " fill="#FFAD00" transform="translate(1518,298)"https://robotics-smalabsa.github.io/peta/>
<path d="M0 0 C2.90792778 1.52106992 4.85322577 3.5435444 7 6 C7.53753906 6.60328125 8.07507813 7.2065625 8.62890625 7.828125 C9.77990493 9.14202604 10.92009184 10.46545645 12.05078125 11.796875 C14.27068212 14.30594131 16.61503502 16.64750807 19 19 C22.56400302 22.52106323 25.90304168 26.13186008 29.15625 29.9375 C31.34796313 32.38924689 33.66067104 34.68885573 36 37 C39.56400302 40.52106323 42.90304168 44.13186008 46.15625 47.9375 C48.34796313 50.38924689 50.66067104 52.68885573 53 55 C56.56400302 58.52106323 59.90304168 62.13186008 63.15625 65.9375 C65.34796313 68.38924689 67.66067104 70.68885573 70 73 C73.56400302 76.52106323 76.90304168 80.13186008 80.15625 83.9375 C83.15350228 87.29035849 86.39159634 90.39893756 89.58984375 93.55859375 C92.26297901 96.26638879 94.7370157 99.09353866 97.203125 101.98828125 C100.00510615 105.12528188 103.04429758 108.01485276 106.08203125 110.921875 C109.85819397 115.01335885 110.43553273 118.37555272 110.328125 123.80859375 C109.8403466 127.06625662 108.35595915 128.78262668 106 131 C102.43700323 132.78149839 98.87284733 132.7459738 95 132 C91.88648159 130.09115133 89.51440719 127.62915197 87 125 C86.3296875 124.35160156 85.659375 123.70320313 84.96875 123.03515625 C81.0626671 119.24174882 77.45930097 115.2608299 73.9140625 111.1328125 C71.69548172 108.66067964 69.36293331 106.33437822 67 104 C63.43599698 100.47893677 60.09695832 96.86813992 56.84375 93.0625 C54.65203687 90.61075311 52.33932896 88.31114427 50 86 C46.43599698 82.47893677 43.09695832 78.86813992 39.84375 75.0625 C37.65203687 72.61075311 35.33932896 70.31114427 33 68 C29.43599698 64.47893677 26.09695832 60.86813992 22.84375 57.0625 C20.65203687 54.61075311 18.33932896 52.31114427 16 50 C12.43599698 46.47893677 9.09695832 42.86813992 5.84375 39.0625 C3.65203687 36.61075311 1.33932896 34.31114427 -1 32 C-16.07635085 17.06133272 -16.07635085 17.06133272 -16.3125 9.9375 C-15.88753515 4.58294283 -15.88753515 4.58294283 -14 2 C-9.5114681 -0.9923546 -5.25604627 -0.82679379 0 0 Z " fill="#FFEA79" transform="translate(561,298)"https://robotics-smalabsa.github.io/peta/>
<path d="M0 0 C0.6597165 -0.00367669 1.31943301 -0.00735338 1.99914092 -0.01114148 C4.22003137 -0.02219546 6.44087507 -0.02602503 8.66178894 -0.02983093 C10.25001169 -0.03609427 11.83823297 -0.04274095 13.42645264 -0.04974365 C17.74884102 -0.06716482 22.07121833 -0.07770834 26.39363313 -0.08594918 C29.09293641 -0.09109672 31.79223624 -0.09717255 34.49153709 -0.10346031 C42.9335994 -0.12251506 51.37565295 -0.13674589 59.81773263 -0.14507228 C69.56914235 -0.15484834 79.3203253 -0.18117621 89.07165509 -0.22157317 C96.60462191 -0.25171137 104.13752363 -0.26653895 111.67054957 -0.26985329 C116.17171225 -0.27220631 120.67263274 -0.28119928 125.17373085 -0.30631447 C129.40827378 -0.32956034 133.64241447 -0.33384262 137.87700462 -0.32355309 C139.43103751 -0.32305677 140.98508996 -0.32940545 142.5390625 -0.34310913 C144.66153503 -0.36077856 146.7825562 -0.35374831 148.9050293 -0.34057617 C150.0924664 -0.34296453 151.27990351 -0.34535288 152.50332355 -0.34781361 C156.28343174 0.24813995 157.93418379 1.49764389 160.64299011 4.14717102 C161.80596984 6.47313048 161.80899703 7.93440333 161.83049011 10.52217102 C161.8446698 11.2930304 161.85884949 12.06388977 161.87345886 12.85810852 C161.61102356 15.46466929 161.10785738 16.97528579 159.64299011 19.14717102 C156.16801117 21.44111486 153.13531708 21.39853321 149.03874207 21.40113831 C148.37661115 21.40425829 147.71448023 21.40737827 147.03228474 21.41059279 C144.81518953 21.41856554 142.59836857 21.41225209 140.38127136 21.40596008 C138.79113098 21.40867027 137.20099185 21.41223136 135.6108551 21.4165802 C131.29274802 21.42570318 126.97473643 21.42216032 122.65662766 21.41582203 C118.13946524 21.41076158 113.62231105 21.41545361 109.10514832 21.41859436 C101.51911449 21.42223387 93.93311959 21.4174353 86.34709167 21.40791321 C77.57428906 21.39702869 68.8015794 21.40055427 60.02877903 21.41156602 C52.49917842 21.42063932 44.9696058 21.42192396 37.44000149 21.41668868 C32.94178175 21.41356922 28.44360573 21.413159 23.94538879 21.41976166 C19.71664194 21.4255351 15.48801504 21.42153825 11.25928116 21.40997314 C9.70645471 21.40732655 8.15361819 21.40809164 6.60079575 21.41249847 C4.4828065 21.41795546 2.36520278 21.41111822 0.24723816 21.40113831 C-0.9385231 21.40038425 -2.12428436 21.3996302 -3.34597778 21.3988533 C-6.27473845 21.15404782 -7.92680889 20.7531997 -10.35700989 19.14717102 C-13.03356949 15.11528346 -13.05762476 10.82627748 -12.35700989 6.14717102 C-8.82653226 0.49840681 -6.41079019 0.02309387 0 0 Z " fill="#E86100" transform="translate(949.3570098876953,1536.8528289794922)"https://robotics-smalabsa.github.io/peta/>
<path d="M0 0 C2.8100346 1.79363911 4.50940468 3.01880935 6 6 C6.09811219 8.08465386 6.12930764 10.17256053 6.13061523 12.25952148 C6.13181177 12.90437311 6.13300831 13.54922474 6.1342411 14.21361732 C6.13582594 16.37032518 6.12898825 18.52690088 6.12109375 20.68359375 C6.11908368 21.80809842 6.11908368 21.80809842 6.117033 22.95532036 C6.08139421 40.83421383 5.62994789 58.70070984 5.13116455 76.57165527 C5.03908856 79.91176286 4.95170441 83.25198668 4.86426735 86.5922184 C4.65528919 94.57454559 4.43001045 102.55615501 4.18537331 110.53746986 C4.0427095 115.27709494 3.93813719 120.01627957 3.85107422 124.75732422 C3.79566554 127.02442432 3.73986961 129.29151501 3.68359375 131.55859375 C3.67352798 132.56350357 3.66346222 133.56841339 3.65309143 134.60377502 C3.52686436 138.9212731 3.39900201 141.35707595 1.08227539 145.09008789 C-2.44289367 148.32345611 -5.10757731 148.330253 -9.73828125 148.29296875 C-13.0542278 147.86344199 -14.74987627 146.39075646 -17 144 C-18.68331286 140.63337427 -18.03581036 136.83262258 -17.94921875 133.13671875 C-17.9310762 132.19389542 -17.91293365 131.25107208 -17.89424133 130.27967834 C-17.83087063 127.08214596 -17.75942955 123.88485062 -17.6875 120.6875 C-17.63979856 118.42415734 -17.59227733 116.16081087 -17.54492188 113.89746094 C-17.39078478 106.68837516 -17.22385487 99.47961512 -17.05358124 92.27089691 C-16.99771601 89.90319931 -16.94223155 87.53549297 -16.88677979 85.16778564 C-16.62219039 73.89617457 -16.3469171 62.62485555 -16.0647316 51.35367203 C-16.0000727 48.75292422 -15.93669536 46.1521479 -15.87362671 43.55136108 C-15.77292756 39.41105893 -15.66801808 35.27088307 -15.55998802 31.13076591 C-15.52050584 29.59467399 -15.48235486 28.05854717 -15.44564247 26.52238655 C-14.95732659 6.20437862 -14.95732659 6.20437862 -12.0625 2.5625 C-8.24346572 -0.33070779 -4.69226763 -0.67417638 0 0 Z " fill="#FFE33F" transform="translate(1055,132)"https://robotics-smalabsa.github.io/peta/>
</svg>
