<?xml version="1.0" encoding="UTF-8"?>
<svg version="1.1" xmlns="http://www.w3.org/2000/svg" width="2048" height="2048">
<path d="M0 0 C0.69067566 0.09474609 1.38135132 0.18949219 2.09295654 0.28710938 C55.58223548 7.65891823 105.69505357 23.95125396 154 48 C154.9084668 48.44956055 155.81693359 48.89912109 156.75292969 49.36230469 C188.23414783 65.0389984 217.07268961 85.46977602 244 108 C244.99257812 108.82290527 245.98515625 109.64581055 247.0078125 110.49365234 C255.8511855 117.89768575 264.10550495 125.79485567 272.23364258 133.97290039 C274.32085192 136.07089508 276.4186359 138.15789115 278.51757812 140.24414062 C285.81021441 147.5296183 292.61465637 154.90052797 299 163 C300.00577881 164.17645829 301.02026674 165.3455796 302.046875 166.50390625 C322.44544463 189.53907594 339.02960485 216.21687882 354 243 C354.68352539 244.21816406 354.68352539 244.21816406 355.38085938 245.4609375 C380.21555739 290.09576539 396.37963705 340.17032034 404.75 390.4375 C404.9365918 391.54013184 405.12318359 392.64276367 405.31542969 393.77880859 C409.07255048 417.72792416 410.5111423 441.62936272 410.39111328 465.83398438 C410.37402251 469.30544653 410.38422592 472.77621802 410.40142918 476.24765682 C410.50737254 501.50375033 408.77663124 526.54162344 404.3125 551.4375 C404.18683655 552.14915314 404.0611731 552.86080627 403.93170166 553.59402466 C393.68484595 611.30029242 372.61417495 667.03017282 342 717 C341.48195801 717.85271484 340.96391602 718.70542969 340.43017578 719.58398438 C329.97064879 736.74661331 318.27215934 752.79730607 305.43994141 768.25585938 C303.41245602 770.71166737 301.42994304 773.20322868 299.4375 775.6875 C295.16614419 780.90370782 290.62546666 785.83872568 286.01953125 790.7578125 C284.11357193 792.79365494 282.24375325 794.84781026 280.38671875 796.9296875 C278.17003852 799.41210026 275.92438899 801.85916153 273.63427734 804.27392578 C272.43941828 805.53589973 271.25345547 806.80631348 270.07275391 808.08154297 C256.09117956 823.01945831 256.09117956 823.01945831 247.6875 823.3125 C243.81474898 822.98026656 242.45312624 822.44780429 239.671875 819.69921875 C237.96731213 816.94722589 237.47859114 815.67734877 237.5625 812.5 C237.56378906 811.7678125 237.56507813 811.035625 237.56640625 810.28125 C238.65794178 804.53839639 242.7351994 801.14679327 246.9375 797.4375 C255.49084232 789.71174482 263.83336072 781.75890354 271.30859375 772.96875 C273.23867842 770.72218493 275.24418139 768.55416096 277.25 766.375 C282.83653123 760.17404486 287.92496861 753.61975475 293 747 C293.4837207 746.37319336 293.96744141 745.74638672 294.46582031 745.10058594 C350.83891328 671.90858998 383.16827751 582.91544435 385.47998047 413.79003906 C376.60445067 346.0355915 352.93818664 279.97900908 315 223 C314.31043213 221.96141846 314.31043213 221.96141846 313.60693359 220.90185547 C304.14479821 206.72711346 293.98708845 193.03119792 283 180 C282.52530273 179.43506836 282.05060547 178.87013672 281.56152344 178.28808594 C273.9373907 169.19823138 273.9373907 169.19823138 265.68383789 160.68676758 C263.96147354 158.9614065 262.39602132 157.1605143 260.8203125 155.30078125 C257.02530372 150.93709532 252.9263094 146.99042825 248.6875 143.0625 C247.93911865 142.36447266 247.1907373 141.66644531 246.41967773 140.94726562 C244.28445775 138.95972457 242.14355491 136.97854441 240 135 C239.47374023 134.51257324 238.94748047 134.02514648 238.40527344 133.52294922 C232.48901848 128.0561624 226.3775105 122.91933599 220 118 C219.33806641 117.48727539 218.67613281 116.97455078 217.99414062 116.44628906 C197.03744424 100.27418462 175.081069 85.94967663 152 73 C151.25266602 72.5767041 150.50533203 72.1534082 149.73535156 71.71728516 C88.28658038 37.11070469 16.11474048 20.30452316 -54 18 C-55.93166016 17.93619141 -55.93166016 17.93619141 -57.90234375 17.87109375 C-146.42914859 16.52296982 -236.36244674 44.37823175 -310 93 C-310.69287109 93.45729492 -311.38574219 93.91458984 -312.09960938 94.38574219 C-329.41780472 105.89529881 -346.0676527 118.63102401 -361.41796875 132.6640625 C-362.81643519 133.92924091 -364.22103655 135.188329 -365.65649414 136.41137695 C-371.54123737 141.441871 -377.01350968 146.86120994 -382.47290039 152.3425293 C-384.05959946 153.93458966 -385.65157742 155.5212299 -387.24414062 157.10742188 C-392.70607519 162.56546826 -398.01307754 168.09954469 -403 174 C-403.8884708 175.02157505 -404.77774682 176.04245056 -405.66796875 177.0625 C-462.96736034 243.86737205 -497.99408771 327.19222434 -510 414 C-510.16661133 415.19028809 -510.33322266 416.38057617 -510.50488281 417.60693359 C-515.20850584 452.80619948 -515.00373378 489.85247914 -510 525 C-509.90289734 525.69081665 -509.80579468 526.3816333 -509.70574951 527.09338379 C-497.79580389 611.33446258 -464.42903795 691.75028305 -406.625 760.375 C-406.15868164 760.92679932 -405.69236328 761.47859863 -405.21191406 762.04711914 C-402.95950026 764.70796753 -400.69232249 767.35005225 -398.390625 769.96875 C-388.68277128 781.18403442 -381.87852404 793.91749765 -375.04785156 807.00146484 C-373.97681686 809.0442165 -372.89231988 811.07932307 -371.8046875 813.11328125 C-353.81241696 846.85162462 -337.73694358 881.30869794 -324 917 C-323.58766113 918.06637695 -323.17532227 919.13275391 -322.75048828 920.23144531 C-306.98649895 961.35433046 -293.7389838 1008.90206239 -291.5703125 1053.04296875 C-291.53375549 1053.77899323 -291.49719849 1054.5150177 -291.45953369 1055.27334595 C-291.30858403 1058.34352047 -291.15839452 1061.41358602 -291.02587891 1064.48461914 C-289.85960093 1091.08429074 -281.43409596 1110.9699642 -264 1131 C-263.20722656 1131.92683594 -262.41445313 1132.85367187 -261.59765625 1133.80859375 C-255.9065008 1140.29093669 -249.82326347 1145.74040108 -243 1151 C-242.13375 1151.70511719 -241.2675 1152.41023438 -240.375 1153.13671875 C-195.77976182 1188.42016714 -134.85558513 1199.14548924 -79.38671875 1199.16796875 C-77.48655677 1199.17119528 -75.58639502 1199.17456031 -73.68623352 1199.17805481 C-69.70821562 1199.18401557 -65.73021931 1199.18589833 -61.75219727 1199.18530273 C-57.74303611 1199.18522215 -53.73399086 1199.19205919 -49.72485352 1199.20581055 C40.73008804 1200.10364214 40.73008804 1200.10364214 121 1163 C121.51224121 1162.60232422 122.02448242 1162.20464844 122.55224609 1161.79492188 C142.01314758 1146.67853827 153.77294077 1126.11445138 157.68359375 1101.6640625 C159.7757913 1084.04827575 154.90007709 1067.59864763 144.0625 1053.625 C142.72689999 1052.06722078 141.3737223 1050.52426721 140 1049 C139.45472656 1048.36191406 138.90945313 1047.72382812 138.34765625 1047.06640625 C116.82569573 1023.59234047 86.98312721 1012.35390581 57 1005 C56.56107422 1006.13610718 56.56107422 1006.13610718 56.11328125 1007.29516602 C54.71224043 1010.69914218 52.89789181 1013.79452572 51 1016.9375 C50.60554688 1017.59137695 50.21109375 1018.24525391 49.8046875 1018.91894531 C37.61950553 1038.83482056 22.59534828 1057.76293648 4 1072 C3.113125 1072.72574219 2.22625 1073.45148438 1.3125 1074.19921875 C-12.34970675 1085.07205829 -28.17281446 1092.5155685 -45 1097 C-45.97525635 1097.26466064 -45.97525635 1097.26466064 -46.97021484 1097.53466797 C-76.11381542 1105.02661523 -105.34883454 1099.94995994 -131.25 1085.6875 C-146.12133043 1076.63538583 -157.42557575 1064.85195385 -163.3125 1048.3125 C-165.6660791 1037.02446045 -164.71337199 1025.67451059 -158.64453125 1015.79296875 C-157.19128548 1013.75530779 -155.65331827 1011.87804114 -154 1010 C-153.51015625 1009.41734375 -153.0203125 1008.8346875 -152.515625 1008.234375 C-130.56216083 984.10730052 -81.67954558 972.976626 -50.56787109 971.11279297 C-22.4535128 969.8778782 4.44925648 972.93073849 32.02050781 978.01806641 C32.72914978 978.14853867 33.43779175 978.27901093 34.16790771 978.41343689 C36.10148425 978.77126738 38.03417172 979.13389246 39.96679688 979.49682617 C42.98081651 980.08182606 42.98081651 980.08182606 46 980 C53.59064397 966.1688266 56.1931448 953.21827806 52.5 937.625 C49.71107867 928.09286531 45.38371966 918.85533384 39.75 910.66015625 C38 908 38 908 38 906 C34.97540941 908.19970225 32.46521649 910.53320842 30.0625 913.375 C3.72033774 944.00276349 -31.46286828 963.95854948 -71 972 C-71.76602539 972.16371094 -72.53205078 972.32742188 -73.32128906 972.49609375 C-87.00502367 975.29411975 -100.84113932 975.31136595 -114.75 975.375 C-115.66443878 975.38294586 -116.57887756 975.39089172 -117.52102661 975.39907837 C-141.52350472 975.55911461 -166.70463658 972.54662166 -185.33984375 955.76171875 C-194.21406404 946.34460499 -197.66435376 937.43884545 -197.61450195 924.76953125 C-197.14394722 910.30227975 -188.80206367 900.77271617 -179 891 C-178.42765625 890.36835937 -177.8553125 889.73671875 -177.265625 889.0859375 C-166.80231864 877.70574347 -152.56443402 870.01433086 -139 863 C-138.33339355 862.6484082 -137.66678711 862.29681641 -136.97998047 861.93457031 C-117.46431508 851.73508527 -95.80266386 844.96432596 -74 842 C-73.27417725 841.89977539 -72.54835449 841.79955078 -71.80053711 841.69628906 C-63.46432434 840.70528926 -55.07045883 840.75831043 -46.6875 840.75 C-45.88997314 840.74866058 -45.09244629 840.74732117 -44.27075195 840.74594116 C-31.6200754 840.75054314 -19.42701905 841.47964233 -7 844 C-5.89011719 844.19335938 -4.78023437 844.38671875 -3.63671875 844.5859375 C10.12118639 847.3921857 21.64870664 854.82498997 32 864 C33.32246004 865.01433585 34.65197284 866.01989768 36 867 C36.26167969 866.16984375 36.52335937 865.3396875 36.79296875 864.484375 C37.87232308 861.36856896 39.10127324 858.36558847 40.41162109 855.34130859 C43.37274917 848.46731859 45.88290481 841.59249679 47.875 834.375 C48.07778564 833.6418457 48.28057129 832.90869141 48.48950195 832.15332031 C54.12077226 810.93206667 51.95004728 788.38327582 41.22021484 769.15454102 C33.40625859 755.95968424 19.28778583 740.64409714 3.81982422 736.40209961 C3.21928223 736.26940674 2.61874023 736.13671387 2 736 C1.17757812 737.02738281 0.35515625 738.05476563 -0.4921875 739.11328125 C-6.41395282 746.47672823 -12.38796539 753.70725028 -18.8203125 760.6328125 C-20.69581648 762.66965016 -22.47732104 764.74954911 -24.25 766.875 C-43.91961028 789.34798931 -71.79940732 808.46921457 -102 812 C-107.51481525 812.32771861 -113.03581552 812.32990236 -118.55859375 812.31567383 C-121.09940271 812.31253166 -123.63902311 812.33598054 -126.1796875 812.36132812 C-153.01172571 812.46604344 -182.1766232 805.82423632 -202.16015625 786.9609375 C-209.66591291 778.96117138 -212.42941405 769.79326979 -212.26953125 758.96484375 C-211.18667253 747.05339778 -204.21604673 738.36784718 -195.35595703 730.89453125 C-157.2111335 700.1634689 -104.91952344 689.04604628 -56.98046875 693.4609375 C-39.25007033 695.54977841 -21.59972959 700.4981995 -5 707 C-2.46515023 699.42794876 0.03118767 691.84383858 2.5 684.25 C2.89058594 683.0640625 3.28117187 681.878125 3.68359375 680.65625 C5.57726862 674.81582516 7.28149119 669.02483796 8.60546875 663.02734375 C10.14614204 656.05672363 12.70639394 650.34203053 16 644 C16.40605469 643.2059375 16.81210938 642.411875 17.23046875 641.59375 C21.50994225 633.90386531 27.22888336 627.17031938 32.65234375 620.2734375 C49.19108334 599.21914162 54.2923626 579.17086846 51.77294922 552.60595703 C48.98507133 529.86533054 39.61240221 508.85979832 21.375 494.375 C-4.22652198 474.73871255 -37.16931074 462.85697354 -69.69335938 466.68164062 C-91.26544015 469.65898962 -112.31803238 474.68743915 -126.13671875 492.80078125 C-131.3498408 500.10643048 -135.89200761 507.76644296 -140.39453125 515.5234375 C-150.1445768 532.31703131 -160.17393133 548.17393133 -174 562 C-169.02774868 577.53600871 -163.41415803 591.88972373 -148.4765625 600.4453125 C-140.57175928 603.83986764 -132.40782808 603.54612467 -124 603 C-122.26556641 602.89365234 -122.26556641 602.89365234 -120.49609375 602.78515625 C-113.44779682 602.05827511 -107.63410391 600.13310797 -101.1875 597.375 C-94.96834758 594.75082593 -89.46246711 593.30460708 -82.6875 593.25 C-81.63888794 593.22752197 -81.63888794 593.22752197 -80.5690918 593.20458984 C-76.76897373 593.3208583 -75.09830213 593.91877635 -72.14453125 596.359375 C-67.10250523 602.56777133 -67.06254838 608.16380193 -67.67578125 615.86328125 C-69.64543703 628.84402475 -80.86109617 641.47943488 -91.0234375 649.15625 C-113.44211044 663.04288206 -142.51060549 666.12994103 -168 661 C-183.34120336 657.01688838 -199.2784896 649.3917077 -208.44433594 635.86914062 C-212.37537565 628.97521535 -212.63978306 622.93153516 -212.375 615.125 C-212.36082031 614.03058594 -212.34664062 612.93617188 -212.33203125 611.80859375 C-211.99804688 592.99414062 -211.99804688 592.99414062 -210 587 C-227.07963937 599.94033853 -239.62150777 614.00246926 -250.9296875 632.11328125 C-253.70752307 636.55240566 -256.54262711 640.94887634 -259.4375 645.3125 C-259.82591064 645.90369629 -260.21432129 646.49489258 -260.61450195 647.10400391 C-264.00672553 652.19050959 -267.51387832 657.32340095 -272.625 660.8125 C-273.19476562 661.21082031 -273.76453125 661.60914063 -274.3515625 662.01953125 C-279.15040991 664.87382201 -284.6118932 664.42456429 -290 664 C-295.63887875 662.0520237 -298.59619389 658.88149676 -301.1875 653.5625 C-308.69672098 629.8795723 -301.12862771 600.28650997 -290.29199219 578.85693359 C-281.77964379 562.84224304 -269.49374619 550.19514172 -252.01953125 544.3359375 C-241.01391519 542.50521607 -232.41780896 543.95248919 -223 550 C-221.43461994 551.1418956 -219.87191186 552.28746742 -218.3125 553.4375 C-215.38260133 555.40823685 -213.31508773 556.48926171 -209.75 556.4375 C-202.92962309 555.0924693 -197.33594088 550.21232129 -192 546 C-190.66195312 544.95779297 -190.66195312 544.95779297 -189.296875 543.89453125 C-175.96092178 532.71833146 -168.18304216 516.65251476 -159.63378906 501.82617188 C-145.7442485 477.79967433 -129.52924993 457.5828115 -101.73828125 449.76660156 C-88.25005775 446.19906419 -75.1250278 444.64582366 -61.19995117 444.68432617 C-58.8326954 444.68747315 -56.46671077 444.66397664 -54.09960938 444.63867188 C-18.14837704 444.48931971 15.52661049 457.74983949 42 482 C42.88300781 482.78890625 43.76601562 483.5778125 44.67578125 484.390625 C64.47974359 502.99341389 73.11607344 529.25741406 74.10839844 555.91162109 C74.73707658 587.18578214 70.73308906 609.57123662 50.80859375 634.45703125 C41.7913711 645.75899152 33.4895824 656.97074288 30.19140625 671.30078125 C28.07400021 680.15132298 25.24974985 688.70592245 22.3125 697.3125 C21.80867027 698.80384249 21.30541296 700.29537848 20.80273438 701.78710938 C19.89192584 704.48728592 18.97809804 707.1863897 18.05981445 709.8840332 C17.36712018 711.92062778 16.68026045 713.95921864 16 716 C16.96679688 716.556875 17.93359375 717.11375 18.9296875 717.6875 C43.57600358 732.05367033 61.5289318 750.85636416 70.0625 778.43359375 C70.8029014 781.28485108 71.4644155 784.10372381 72 787 C72.27263672 788.46373047 72.27263672 788.46373047 72.55078125 789.95703125 C76.92673734 822.21220357 68.88859234 851.67930804 54 880 C52.99547768 881.99773244 51.99386035 883.99694194 51 886 C51.31638428 886.44577393 51.63276855 886.89154785 51.95874023 887.35083008 C69.31492579 912.02116147 80.12482298 936.58030151 75.421875 967.33203125 C74.24818358 973.19424532 72.67553115 978.6489377 70 984 C73.96893827 985.74930335 78.01986804 986.87148312 82.19384766 988.00244141 C104.53968463 994.09097609 122.88901839 1004.60543369 141 1019 C141.95390625 1019.75023437 142.9078125 1020.50046875 143.890625 1021.2734375 C156.78664713 1031.59730221 167.25799749 1043.04470974 174 1058.25 C174.4177771 1059.18682617 174.4177771 1059.18682617 174.84399414 1060.14257812 C178.99654037 1070.10141985 179.37287639 1080.17846951 179.37060547 1090.82910156 C179.37495289 1093.10038796 179.41130408 1095.36968375 179.44921875 1097.640625 C179.65036328 1123.7704511 169.02894287 1148.55941289 150.828125 1167.14453125 C150.33892578 1167.63646973 149.84972656 1168.1284082 149.34570312 1168.63525391 C148.19913464 1169.79804741 147.08774042 1170.99535299 145.984375 1172.19921875 C110.52802537 1210.19917607 51.52965227 1218.51628655 2.41381836 1220.30981445 C-0.25664527 1220.39458034 -2.92693178 1220.47566107 -5.59765625 1220.55078125 C-6.6767007 1220.58200294 -6.6767007 1220.58200294 -7.77754402 1220.61385536 C-24.08320657 1221.07716424 -40.38648776 1221.18750143 -56.69799805 1221.18530273 C-59.87025584 1221.18522091 -63.0423709 1221.19228344 -66.21459961 1221.20581055 C-90.41534761 1221.30715106 -114.59162889 1221.01995331 -138.5625 1217.25 C-139.6570752 1217.08153564 -140.75165039 1216.91307129 -141.87939453 1216.73950195 C-188.85422822 1209.1970544 -234.86890105 1191.9656925 -269.51269531 1158.43603516 C-271.07628166 1156.92634788 -272.6593002 1155.43863585 -274.2421875 1153.94921875 C-298.23981831 1131.03628651 -311.37049875 1104.46745159 -312.52978516 1071.20703125 C-313.22526423 1051.45152685 -316.32327668 1032.58262177 -320.50463867 1013.29217529 C-320.99725705 1011.01269242 -321.48111719 1008.73150432 -321.96289062 1006.44970703 C-333.46106659 952.21671086 -353.42390208 901.52581895 -378 852 C-378.70895443 850.55629442 -379.41738516 849.11233139 -380.125 847.66796875 C-382.04888954 843.7608448 -384.0173088 839.87757638 -386 836 C-386.5480127 834.92717773 -387.09602539 833.85435547 -387.66064453 832.74902344 C-389.27229756 829.59725353 -390.88937342 826.4483021 -392.50930786 823.30078125 C-393.15529539 822.04506252 -393.80041789 820.78889829 -394.44454956 819.53222656 C-402.99009677 801.74684019 -402.99009677 801.74684019 -414.9375 786.3125 C-415.98024287 785.2353702 -417.02058391 784.15591042 -418.05859375 783.07421875 C-418.81052002 782.29763916 -418.81052002 782.29763916 -419.57763672 781.50537109 C-423.30719831 777.55815572 -426.61389427 773.23974583 -430 769 C-430.908943 767.89353347 -431.8191656 766.78811724 -432.73046875 765.68359375 C-486.23620356 700.43313498 -519.22153627 619.26745643 -534 509 C-534.08467529 507.82219971 -534.16935059 506.64439941 -534.2565918 505.4309082 C-535.07397931 493.51756244 -535.20183638 481.6257856 -535.1875 469.6875 C-535.18656342 468.67432709 -535.18562683 467.66115417 -535.18466187 466.61727905 C-534.99808874 373.16987753 -507.39861146 283.1600928 -432 173 C-431.24203125 172.04738281 -430.4840625 171.09476563 -429.703125 170.11328125 C-424.94388064 164.1979793 -419.9453117 158.57191871 -414.7734375 153.01953125 C-412.74191207 150.83396345 -410.78917717 148.59385771 -408.84765625 146.328125 C-404.6145259 141.47142553 -400.07532526 136.92488185 -395.51196289 132.3815918 C-394.06475615 130.93974779 -392.62297974 129.49262884 -391.18164062 128.04492188 C-385.95831807 122.81751488 -380.63685016 117.77939176 -375 113 C-373.99039117 112.12296447 -372.98124432 111.24539671 -371.97265625 110.3671875 C-363.24303305 102.89134911 -354.20770954 95.87590015 -345 89 C-343.92274658 88.19127441 -343.92274658 88.19127441 -342.82373047 87.36621094 C-330.98323849 78.51047082 -318.70743461 70.55332145 -306 63 C-305.1347168 62.48550293 -304.26943359 61.97100586 -303.37792969 61.44091797 C-220.90982353 12.72381964 -131.16571185 -4.62201611 0 0 Z M-258.5625 573.4375 C-272.39181863 586.48494902 -280.30708875 607.37797627 -282 626 C-282.06997115 629.66848735 -282.05970489 633.33146641 -282 637 C-278.99278148 634.18447016 -276.81548307 631.36818946 -274.6796875 627.8515625 C-274.06697998 626.8527002 -273.45427246 625.85383789 -272.82299805 624.82470703 C-272.18015869 623.76880371 -271.53731934 622.71290039 -270.875 621.625 C-260.98817253 605.63388235 -251.1531338 591.85788025 -236.76171875 579.5390625 C-234.38847084 577.46575944 -232.19312738 575.26166261 -230 573 C-231.57789598 571.84669053 -233.1625482 570.70262073 -234.75 569.5625 C-235.63171875 568.92441406 -236.5134375 568.28632812 -237.421875 567.62890625 C-245.30224371 562.64994602 -252.05240241 568.13805214 -258.5625 573.4375 Z M-188 591 C-190.1980004 595.54253417 -190.68781328 600.03215915 -191 605 C-191.10054687 606.27359375 -191.20109375 607.5471875 -191.3046875 608.859375 C-191.92634489 617.75624302 -191.92634489 617.75624302 -188.1875 625.5625 C-186.23958952 627.38416617 -186.23958952 627.38416617 -184 629 C-183.21238281 629.61101563 -182.42476562 630.22203125 -181.61328125 630.8515625 C-168.89635974 639.7857226 -152.35582474 643.94456255 -136.9375 641.69970703 C-122.61799936 639.1905981 -106.77739964 635.52753084 -97 624 C-95.78661872 621.86793505 -95.78661872 621.86793505 -95 620 C-96.134375 620.28875 -97.26875 620.5775 -98.4375 620.875 C-110.0572702 623.39321645 -121.632433 624.18986492 -133.5 624.25 C-135.00348999 624.26377686 -135.00348999 624.26377686 -136.53735352 624.27783203 C-151.60061124 624.21510505 -163.3842476 619.34364033 -174.3828125 608.87109375 C-178.13393014 604.75606171 -181.1850171 600.34557956 -184.22265625 595.6875 C-185.88031339 592.9865255 -185.88031339 592.9865255 -188 591 Z M-111 717 C-112.19206055 717.28206299 -112.19206055 717.28206299 -113.40820312 717.56982422 C-138.36605287 723.66384464 -173.6760597 734.8356323 -189 757.125 C-190.53761904 760.0080357 -190.69204523 761.81659195 -190 765 C-183.92345899 776.66695875 -170.96788006 782.19864719 -159.01586914 786.11621094 C-130.78179406 794.72606163 -102.87203701 794.0112873 -76.4375 780.3125 C-64.2073679 773.70221359 -54.00566332 764.54430708 -44 755 C-42.90558594 753.96746094 -42.90558594 753.96746094 -41.7890625 752.9140625 C-37.20038306 748.47047965 -33.17591083 743.67301354 -29.1875 738.6875 C-26.64573714 735.56476277 -23.96305511 732.59764629 -21.21484375 729.65625 C-19.70427695 727.93916486 -19.70427695 727.93916486 -20 725 C-49.85902745 715.51655807 -79.87206025 709.50547625 -111 717 Z M-159 903 C-159.93392578 903.71542969 -159.93392578 903.71542969 -160.88671875 904.4453125 C-167.58706746 909.71524969 -174.90420319 918.11009213 -176.5 926.6875 C-175.52603282 933.14003254 -171.36542208 938.19919714 -166.375 942.25 C-153.91147643 950.73081867 -136.95401881 954.42113476 -122 955 C-120.61554688 955.07734375 -120.61554688 955.07734375 -119.203125 955.15625 C-71.89470902 956.54088657 -28.86729505 938.75000048 5.6875 907.21875 C11.78499171 901.3684539 16.89004109 894.70973327 22 888 C17.43828555 877.98168931 6.60207714 871.59025594 -3.3125 867.75 C-55.83576668 850.53649243 -117.56775858 868.21184774 -159 903 Z M-63 995 C-64.01255859 995.23106445 -65.02511719 995.46212891 -66.06835938 995.70019531 C-106.885238 1003.84368485 -106.885238 1003.84368485 -139.6875 1027.4140625 C-141.85169489 1031.30726091 -142.98519297 1034.14119206 -143.0625 1038.625 C-138.0272245 1054.61940453 -125.32044778 1063.77342829 -111 1071.3125 C-88.70196993 1081.84861107 -66.54472234 1081.58926099 -43.54101562 1073.60864258 C-8.63765004 1060.60550426 14.82440923 1032.72829238 34 1002 C31.2729132 999.2729132 28.41319718 999.16144699 24.74609375 998.5625 C24.01238052 998.43689697 23.2786673 998.31129395 22.52272034 998.18188477 C20.95890779 997.91593426 19.39442118 997.65392241 17.8293457 997.39550781 C15.49719341 997.00987071 13.16750397 996.61159222 10.83789062 996.2109375 C-13.67718551 992.04602707 -38.51845785 989.15495935 -63 995 Z " fill="#A4A637" transform="translate(1103,307)"https://robotics-smalabsa.github.io/peta/>
</svg>
