<?xml version="1.0" encoding="UTF-8"?>
<svg version="1.1" xmlns="http://www.w3.org/2000/svg" width="2048" height="2048">
<path d="M0 0 C0.69067566 0.09474609 1.38135132 0.18949219 2.09295654 0.28710938 C55.58223548 7.65891823 105.69505357 23.95125396 154 48 C154.9084668 48.44956055 155.81693359 48.89912109 156.75292969 49.36230469 C188.23414783 65.0389984 217.07268961 85.46977602 244 108 C244.99257812 108.82290527 245.98515625 109.64581055 247.0078125 110.49365234 C255.8511855 117.89768575 264.10550495 125.79485567 272.23364258 133.97290039 C274.32085192 136.07089508 276.4186359 138.15789115 278.51757812 140.24414062 C285.81021441 147.5296183 292.61465637 154.90052797 299 163 C300.00577881 164.17645829 301.02026674 165.3455796 302.046875 166.50390625 C322.44544463 189.53907594 339.02960485 216.21687882 354 243 C354.68352539 244.21816406 354.68352539 244.21816406 355.38085938 245.4609375 C380.21555739 290.09576539 396.37963705 340.17032034 404.75 390.4375 C404.9365918 391.54013184 405.12318359 392.64276367 405.31542969 393.77880859 C409.07255048 417.72792416 410.5111423 441.62936272 410.39111328 465.83398438 C410.37402251 469.30544653 410.38422592 472.77621802 410.40142918 476.24765682 C410.50737254 501.50375033 408.77663124 526.54162344 404.3125 551.4375 C404.18683655 552.14915314 404.0611731 552.86080627 403.93170166 553.59402466 C393.68484595 611.30029242 372.61417495 667.03017282 342 717 C341.48195801 717.85271484 340.96391602 718.70542969 340.43017578 719.58398438 C329.97064879 736.74661331 318.27215934 752.79730607 305.43994141 768.25585938 C303.41245602 770.71166737 301.42994304 773.20322868 299.4375 775.6875 C295.16614419 780.90370782 290.62546666 785.83872568 286.01953125 790.7578125 C284.11357193 792.79365494 282.24375325 794.84781026 280.38671875 796.9296875 C278.17003852 799.41210026 275.92438899 801.85916153 273.63427734 804.27392578 C272.43941828 805.53589973 271.25345547 806.80631348 270.07275391 808.08154297 C256.09117956 823.01945831 256.09117956 823.01945831 247.6875 823.3125 C243.81474898 822.98026656 242.45312624 822.44780429 239.671875 819.69921875 C237.96731213 816.94722589 237.47859114 815.67734877 237.5625 812.5 C237.56378906 811.7678125 237.56507813 811.035625 237.56640625 810.28125 C238.65794178 804.53839639 242.7351994 801.14679327 246.9375 797.4375 C255.49084232 789.71174482 263.83336072 781.75890354 271.30859375 772.96875 C273.23867842 770.72218493 275.24418139 768.55416096 277.25 766.375 C282.83653123 760.17404486 287.92496861 753.61975475 293 747 C293.4837207 746.37319336 293.96744141 745.74638672 294.46582031 745.10058594 C350.83891328 671.90858998 383.16827751 582.91544435 385.47998047 413.79003906 C376.60445067 346.0355915 352.93818664 279.97900908 315 223 C314.31043213 221.96141846 314.31043213 221.96141846 313.60693359 220.90185547 C304.14479821 206.72711346 293.98708845 193.03119792 283 180 C282.52530273 179.43506836 282.05060547 178.87013672 281.56152344 178.28808594 C273.9373907 169.19823138 273.9373907 169.19823138 265.68383789 160.68676758 C263.96147354 158.9614065 262.39602132 157.1605143 260.8203125 155.30078125 C257.02530372 150.93709532 252.9263094 146.99042825 248.6875 143.0625 C247.93911865 142.36447266 247.1907373 141.66644531 246.41967773 140.94726562 C244.28445775 138.95972457 242.14355491 136.97854441 240 135 C239.47374023 134.51257324 238.94748047 134.02514648 238.40527344 133.52294922 C232.48901848 128.0561624 226.3775105 122.91933599 220 118 C219.33806641 117.48727539 218.67613281 116.97455078 217.99414062 116.44628906 C197.03744424 100.27418462 175.081069 85.94967663 152 73 C151.25266602 72.5767041 150.50533203 72.1534082 149.73535156 71.71728516 C88.28658038 37.11070469 16.11474048 20.30452316 -54 18 C-55.93166016 17.93619141 -55.93166016 17.93619141 -57.90234375 17.87109375 C-146.42914859 16.52296982 -236.36244674 44.37823175 -310 93 C-310.69287109 93.45729492 -311.38574219 93.91458984 -312.09960938 94.38574219 C-329.41780472 105.89529881 -346.0676527 118.63102401 -361.41796875 132.6640625 C-362.81643519 133.92924091 -364.22103655 135.188329 -365.65649414 136.41137695 C-371.54123737 141.441871 -377.01350968 146.86120994 -382.47290039 152.3425293 C-384.05959946 153.93458966 -385.65157742 155.5212299 -387.24414062 157.10742188 C-392.70607519 162.56546826 -398.01307754 168.09954469 -403 174 C-403.8884708 175.02157505 -404.77774682 176.04245056 -405.66796875 177.0625 C-462.96736034 243.86737205 -497.99408771 327.19222434 -510 414 C-510.16661133 415.19028809 -510.33322266 416.38057617 -510.50488281 417.60693359 C-515.20850584 452.80619948 -515.00373378 489.85247914 -510 525 C-509.90289734 525.69081665 -509.80579468 526.3816333 -509.70574951 527.09338379 C-497.79580389 611.33446258 -464.42903795 691.75028305 -406.625 760.375 C-406.15868164 760.92679932 -405.69236328 761.47859863 -405.21191406 762.04711914 C-402.95950026 764.70796753 -400.69232249 767.35005225 -398.390625 769.96875 C-388.68277128 781.18403442 -381.87852404 793.91749765 -375.04785156 807.00146484 C-373.97681686 809.0442165 -372.89231988 811.07932307 -371.8046875 813.11328125 C-353.81241696 846.85162462 -337.73694358 881.30869794 -324 917 C-323.58766113 918.06637695 -323.17532227 919.13275391 -322.75048828 920.23144531 C-306.98649895 961.35433046 -293.7389838 1008.90206239 -291.5703125 1053.04296875 C-291.53375549 1053.77899323 -291.49719849 1054.5150177 -291.45953369 1055.27334595 C-291.30858403 1058.34352047 -291.15839452 1061.41358602 -291.02587891 1064.48461914 C-289.85960093 1091.08429074 -281.43409596 1110.9699642 -264 1131 C-263.20722656 1131.92683594 -262.41445313 1132.85367187 -261.59765625 1133.80859375 C-255.9065008 1140.29093669 -249.82326347 1145.74040108 -243 1151 C-242.13375 1151.70511719 -241.2675 1152.41023438 -240.375 1153.13671875 C-195.77976182 1188.42016714 -134.85558513 1199.14548924 -79.38671875 1199.16796875 C-77.48655677 1199.17119528 -75.58639502 1199.17456031 -73.68623352 1199.17805481 C-69.70821562 1199.18401557 -65.73021931 1199.18589833 -61.75219727 1199.18530273 C-57.74303611 1199.18522215 -53.73399086 1199.19205919 -49.72485352 1199.20581055 C40.73008804 1200.10364214 40.73008804 1200.10364214 121 1163 C121.51224121 1162.60232422 122.02448242 1162.20464844 122.55224609 1161.79492188 C142.01314758 1146.67853827 153.77294077 1126.11445138 157.68359375 1101.6640625 C159.7757913 1084.04827575 154.90007709 1067.59864763 144.0625 1053.625 C142.72689999 1052.06722078 141.3737223 1050.52426721 140 1049 C139.45472656 1048.36191406 138.90945313 1047.72382812 138.34765625 1047.06640625 C116.82569573 1023.59234047 86.98312721 1012.35390581 57 1005 C56.56107422 1006.13610718 56.56107422 1006.13610718 56.11328125 1007.29516602 C54.71224043 1010.69914218 52.89789181 1013.79452572 51 1016.9375 C50.60554688 1017.59137695 50.21109375 1018.24525391 49.8046875 1018.91894531 C37.61950553 1038.83482056 22.59534828 1057.76293648 4 1072 C3.113125 1072.72574219 2.22625 1073.45148438 1.3125 1074.19921875 C-12.34970675 1085.07205829 -28.17281446 1092.5155685 -45 1097 C-45.97525635 1097.26466064 -45.97525635 1097.26466064 -46.97021484 1097.53466797 C-76.11381542 1105.02661523 -105.34883454 1099.94995994 -131.25 1085.6875 C-146.12133043 1076.63538583 -157.42557575 1064.85195385 -163.3125 1048.3125 C-165.6660791 1037.02446045 -164.71337199 1025.67451059 -158.64453125 1015.79296875 C-157.19128548 1013.75530779 -155.65331827 1011.87804114 -154 1010 C-153.51015625 1009.41734375 -153.0203125 1008.8346875 -152.515625 1008.234375 C-130.56216083 984.10730052 -81.67954558 972.976626 -50.56787109 971.11279297 C-22.4535128 969.8778782 4.44925648 972.93073849 32.02050781 978.01806641 C32.72914978 978.14853867 33.43779175 978.27901093 34.16790771 978.41343689 C36.10148425 978.77126738 38.03417172 979.13389246 39.96679688 979.49682617 C42.98081651 980.08182606 42.98081651 980.08182606 46 980 C53.59064397 966.1688266 56.1931448 953.21827806 52.5 937.625 C49.71107867 928.09286531 45.38371966 918.85533384 39.75 910.66015625 C38 908 38 908 38 906 C34.97540941 908.19970225 32.46521649 910.53320842 30.0625 913.375 C3.72033774 944.00276349 -31.46286828 963.95854948 -71 972 C-71.76602539 972.16371094 -72.53205078 972.32742188 -73.32128906 972.49609375 C-87.00502367 975.29411975 -100.84113932 975.31136595 -114.75 975.375 C-115.66443878 975.38294586 -116.57887756 975.39089172 -117.52102661 975.39907837 C-141.52350472 975.55911461 -166.70463658 972.54662166 -185.33984375 955.76171875 C-194.21406404 946.34460499 -197.66435376 937.43884545 -197.61450195 924.76953125 C-197.14394722 910.30227975 -188.80206367 900.77271617 -179 891 C-178.42765625 890.36835937 -177.8553125 889.73671875 -177.265625 889.0859375 C-166.80231864 877.70574347 -152.56443402 870.01433086 -139 863 C-138.33339355 862.6484082 -137.66678711 862.29681641 -136.97998047 861.93457031 C-117.46431508 851.73508527 -95.80266386 844.96432596 -74 842 C-73.27417725 841.89977539 -72.54835449 841.79955078 -71.80053711 841.69628906 C-63.46432434 840.70528926 -55.07045883 840.75831043 -46.6875 840.75 C-45.88997314 840.74866058 -45.09244629 840.74732117 -44.27075195 840.74594116 C-31.6200754 840.75054314 -19.42701905 841.47964233 -7 844 C-5.89011719 844.19335938 -4.78023437 844.38671875 -3.63671875 844.5859375 C10.12118639 847.3921857 21.64870664 854.82498997 32 864 C33.32246004 865.01433585 34.65197284 866.01989768 36 867 C36.26167969 866.16984375 36.52335937 865.3396875 36.79296875 864.484375 C37.87232308 861.36856896 39.10127324 858.36558847 40.41162109 855.34130859 C43.37274917 848.46731859 45.88290481 841.59249679 47.875 834.375 C48.07778564 833.6418457 48.28057129 832.90869141 48.48950195 832.15332031 C54.12077226 810.93206667 51.95004728 788.38327582 41.22021484 769.15454102 C33.40625859 755.95968424 19.28778583 740.64409714 3.81982422 736.40209961 C3.21928223 736.26940674 2.61874023 736.13671387 2 736 C1.17757812 737.02738281 0.35515625 738.05476563 -0.4921875 739.11328125 C-6.41395282 746.47672823 -12.38796539 753.70725028 -18.8203125 760.6328125 C-20.69581648 762.66965016 -22.47732104 764.74954911 -24.25 766.875 C-43.91961028 789.34798931 -71.79940732 808.46921457 -102 812 C-107.51481525 812.32771861 -113.03581552 812.32990236 -118.55859375 812.31567383 C-121.09940271 812.31253166 -123.63902311 812.33598054 -126.1796875 812.36132812 C-153.01172571 812.46604344 -182.1766232 805.82423632 -202.16015625 786.9609375 C-209.66591291 778.96117138 -212.42941405 769.79326979 -212.26953125 758.96484375 C-211.18667253 747.05339778 -204.21604673 738.36784718 -195.35595703 730.89453125 C-157.2111335 700.1634689 -104.91952344 689.04604628 -56.98046875 693.4609375 C-39.25007033 695.54977841 -21.59972959 700.4981995 -5 707 C-4.32035041 704.96325788 -3.6410444 702.92640081 -2.96289062 700.88916016 C-2.2864633 698.85953517 -1.60788729 696.83062563 -0.92773438 694.80224609 C3.8591038 680.47592326 8.44152643 666.1379472 12.1875 651.5 C12.49075195 650.34459717 12.79400391 649.18919434 13.10644531 647.9987793 C15.09567827 640.00423711 15.09567827 640.00423711 14 632 C11.84645767 628.82598827 8.54723495 627.7426883 5.125 626.1875 C-14.78061092 616.66231239 -32.11052137 602.204855 -48.6875 587.84375 C-51.63991649 585.29362583 -54.65108319 582.82483629 -57.6875 580.375 C-62.43487864 576.52124558 -66.9621269 572.46877685 -71.453125 568.3203125 C-73.56957996 566.39213114 -75.7274082 564.56738954 -77.9375 562.75 C-98.60335238 544.67268355 -111.56553359 518.27402772 -114 491 C-114.40360667 483.67353372 -114.39034409 476.33536329 -114.375 469 C-114.37412384 467.97811584 -114.37324768 466.95623169 -114.37234497 465.90338135 C-114.32445666 448.9323617 -113.17358769 432.70331975 -110 416 C-109.71282439 414.4587318 -109.42606459 412.91738608 -109.13964844 411.37597656 C-107.18378904 400.8987297 -105.12025313 390.44506795 -103 380 C-102.66600562 378.33346568 -102.3323747 376.66685811 -102 375 C-102.68964844 374.5875 -103.37929688 374.175 -104.08984375 373.75 C-136.42914891 353.87618833 -151.00440789 316.80667667 -159.59228516 281.3684082 C-161.59466922 272.77430795 -162.24070091 264.63421438 -162.3125 255.8125 C-162.35600586 254.05969727 -162.35600586 254.05969727 -162.40039062 252.27148438 C-162.46488029 243.3768716 -161.23598928 234.92163032 -155.75 227.625 C-147.56038154 219.80763693 -140.16431281 218.51327736 -129.1640625 218.73046875 C-112.16767261 219.51355253 -97.54677231 231.54909283 -85 242 C-84.42830078 242.47405273 -83.85660156 242.94810547 -83.26757812 243.43652344 C-79.47867968 246.58677101 -75.73457779 249.78561307 -72 253 C-70.72962891 254.06541016 -70.72962891 254.06541016 -69.43359375 255.15234375 C-64.27493764 259.56033247 -59.69566116 264.27231936 -56 270 C-56 270.66 -56 271.32 -56 272 C-54.87207031 271.61328125 -53.74414062 271.2265625 -52.58203125 270.828125 C-40.53591151 266.80022396 -28.55434498 263.92109334 -16 262 C-15.23236328 261.88140625 -14.46472656 261.7628125 -13.67382812 261.640625 C-2.08644721 259.95226421 9.56107521 259.77597169 21.25 259.6875 C21.96135101 259.67787231 22.67270203 259.66824463 23.40560913 259.6583252 C37.32424733 259.49682858 54.74345023 259.6669065 65.64453125 269.48046875 C70.65496538 275.09735312 71.46482043 280.54815032 71.3046875 287.81640625 C69.77483283 303.80142615 56.85815195 317.09279672 45.34375 327.37109375 C42.6009232 329.63392586 39.80952617 331.82064792 37 334 C35.92909309 334.86876118 34.86015564 335.73995443 33.79296875 336.61328125 C8.70385178 356.99341986 -28.42635919 382.27727764 -61.8359375 382.09765625 C-62.89941406 382.09443359 -63.96289062 382.09121094 -65.05859375 382.08789062 C-66.15300781 382.07951172 -67.24742187 382.07113281 -68.375 382.0625 C-69.49261719 382.05798828 -70.61023437 382.05347656 -71.76171875 382.04882812 C-74.50786804 382.03709244 -77.25390586 382.02067363 -80 382 C-97.50044541 454.13679866 -97.50044541 454.13679866 -79.87890625 524.078125 C-76.91255144 528.69108424 -73.60257505 532.87120612 -70 537 C-69.31164063 537.80953125 -68.62328125 538.6190625 -67.9140625 539.453125 C-59.74740607 548.82856451 -50.49271538 556.9241919 -40.82421875 564.703125 C-38.33750868 566.72551161 -35.89663271 568.79188064 -33.4675293 570.8828125 C-17.65586371 584.45713831 -0.87842404 596.14012933 17 606.8125 C18.22656295 607.54687425 19.45312547 608.28124922 20.6796875 609.015625 C22.70005291 610.22309044 24.724955 611.42306156 26.7578125 612.609375 C31.91613849 615.77587214 35.89314655 619.17793623 38 625 C39.99703867 633.87469052 37.64541883 642.08604572 35.625 650.75 C35.44559875 651.53879547 35.26619751 652.32759094 35.08135986 653.14028931 C30.20546492 674.54604541 23.59930623 695.40737017 16 716 C16.96679688 716.556875 17.93359375 717.11375 18.9296875 717.6875 C43.57600358 732.05367033 61.5289318 750.85636416 70.0625 778.43359375 C70.8029014 781.28485108 71.4644155 784.10372381 72 787 C72.27263672 788.46373047 72.27263672 788.46373047 72.55078125 789.95703125 C76.92673734 822.21220357 68.88859234 851.67930804 54 880 C52.99547768 881.99773244 51.99386035 883.99694194 51 886 C51.31638428 886.44577393 51.63276855 886.89154785 51.95874023 887.35083008 C69.31492579 912.02116147 80.12482298 936.58030151 75.421875 967.33203125 C74.24818358 973.19424532 72.67553115 978.6489377 70 984 C73.96893827 985.74930335 78.01986804 986.87148312 82.19384766 988.00244141 C104.53968463 994.09097609 122.88901839 1004.60543369 141 1019 C141.95390625 1019.75023437 142.9078125 1020.50046875 143.890625 1021.2734375 C156.78664713 1031.59730221 167.25799749 1043.04470974 174 1058.25 C174.4177771 1059.18682617 174.4177771 1059.18682617 174.84399414 1060.14257812 C178.99654037 1070.10141985 179.37287639 1080.17846951 179.37060547 1090.82910156 C179.37495289 1093.10038796 179.41130408 1095.36968375 179.44921875 1097.640625 C179.65036328 1123.7704511 169.02894287 1148.55941289 150.828125 1167.14453125 C150.33892578 1167.63646973 149.84972656 1168.1284082 149.34570312 1168.63525391 C148.19913464 1169.79804741 147.08774042 1170.99535299 145.984375 1172.19921875 C110.52802537 1210.19917607 51.52965227 1218.51628655 2.41381836 1220.30981445 C-0.25664527 1220.39458034 -2.92693178 1220.47566107 -5.59765625 1220.55078125 C-6.6767007 1220.58200294 -6.6767007 1220.58200294 -7.77754402 1220.61385536 C-24.08320657 1221.07716424 -40.38648776 1221.18750143 -56.69799805 1221.18530273 C-59.87025584 1221.18522091 -63.0423709 1221.19228344 -66.21459961 1221.20581055 C-90.41534761 1221.30715106 -114.59162889 1221.01995331 -138.5625 1217.25 C-139.6570752 1217.08153564 -140.75165039 1216.91307129 -141.87939453 1216.73950195 C-188.85422822 1209.1970544 -234.86890105 1191.9656925 -269.51269531 1158.43603516 C-271.07628166 1156.92634788 -272.6593002 1155.43863585 -274.2421875 1153.94921875 C-298.23981831 1131.03628651 -311.37049875 1104.46745159 -312.52978516 1071.20703125 C-313.22526423 1051.45152685 -316.32327668 1032.58262177 -320.50463867 1013.29217529 C-320.99725705 1011.01269242 -321.48111719 1008.73150432 -321.96289062 1006.44970703 C-333.46106659 952.21671086 -353.42390208 901.52581895 -378 852 C-378.70895443 850.55629442 -379.41738516 849.11233139 -380.125 847.66796875 C-382.04888954 843.7608448 -384.0173088 839.87757638 -386 836 C-386.5480127 834.92717773 -387.09602539 833.85435547 -387.66064453 832.74902344 C-389.27229756 829.59725353 -390.88937342 826.4483021 -392.50930786 823.30078125 C-393.15529539 822.04506252 -393.80041789 820.78889829 -394.44454956 819.53222656 C-402.99009677 801.74684019 -402.99009677 801.74684019 -414.9375 786.3125 C-415.98024287 785.2353702 -417.02058391 784.15591042 -418.05859375 783.07421875 C-418.81052002 782.29763916 -418.81052002 782.29763916 -419.57763672 781.50537109 C-423.30719831 777.55815572 -426.61389427 773.23974583 -430 769 C-430.908943 767.89353347 -431.8191656 766.78811724 -432.73046875 765.68359375 C-486.23620356 700.43313498 -519.22153627 619.26745643 -534 509 C-534.08467529 507.82219971 -534.16935059 506.64439941 -534.2565918 505.4309082 C-535.07397931 493.51756244 -535.20183638 481.6257856 -535.1875 469.6875 C-535.18656342 468.67432709 -535.18562683 467.66115417 -535.18466187 466.61727905 C-534.99808874 373.16987753 -507.39861146 283.1600928 -432 173 C-431.24203125 172.04738281 -430.4840625 171.09476563 -429.703125 170.11328125 C-424.94388064 164.1979793 -419.9453117 158.57191871 -414.7734375 153.01953125 C-412.74191207 150.83396345 -410.78917717 148.59385771 -408.84765625 146.328125 C-404.6145259 141.47142553 -400.07532526 136.92488185 -395.51196289 132.3815918 C-394.06475615 130.93974779 -392.62297974 129.49262884 -391.18164062 128.04492188 C-385.95831807 122.81751488 -380.63685016 117.77939176 -375 113 C-373.99039117 112.12296447 -372.98124432 111.24539671 -371.97265625 110.3671875 C-363.24303305 102.89134911 -354.20770954 95.87590015 -345 89 C-343.92274658 88.19127441 -343.92274658 88.19127441 -342.82373047 87.36621094 C-330.98323849 78.51047082 -318.70743461 70.55332145 -306 63 C-305.1347168 62.48550293 -304.26943359 61.97100586 -303.37792969 61.44091797 C-220.90982353 12.72381964 -131.16571185 -4.62201611 0 0 Z M-137.625 241.8125 C-142.30139112 248.08870914 -142.38346324 254.64645794 -141.36254883 262.18408203 C-136.29656248 293.67166048 -123.61652368 332.16639687 -97 352 C-95.00946385 353.01870792 -93.01036594 354.02100623 -91 355 C-88.94491495 351.25599463 -86.90088747 347.50620735 -84.8659668 343.7512207 C-84.17545858 342.48046155 -83.48219468 341.21119507 -82.78588867 339.94360352 C-70.32394016 317.46723351 -70.32394016 317.46723351 -69.6171875 292.49609375 C-77.16244683 271.1623738 -103.82874441 253.38443011 -123 243 C-130.32409153 239.50706877 -130.32409153 239.50706877 -137.625 241.8125 Z M-48 294 C-48.16740137 295.44449362 -48.27609646 296.89588157 -48.359375 298.34765625 C-49.86654074 320.85919553 -56.92040914 337.50880546 -67.96875 356.9609375 C-69.15043724 358.91662112 -69.15043724 358.91662112 -69 361 C-36.69214768 363.6373757 1.80695399 334.34269719 25 315 C34.19741011 307.13340486 43.20826702 298.7936842 49 288 C49 287.01 49 286.02 49 285 C47.62708132 284.51490207 46.25153297 284.03724487 44.875 283.5625 C44.10929687 283.29566406 43.34359375 283.02882813 42.5546875 282.75390625 C22.86880722 276.94446451 -31.60476833 277.60476833 -48 294 Z M-111 717 C-112.19206055 717.28206299 -112.19206055 717.28206299 -113.40820312 717.56982422 C-138.36605287 723.66384464 -173.6760597 734.8356323 -189 757.125 C-190.53761904 760.0080357 -190.69204523 761.81659195 -190 765 C-183.92345899 776.66695875 -170.96788006 782.19864719 -159.01586914 786.11621094 C-130.78179406 794.72606163 -102.87203701 794.0112873 -76.4375 780.3125 C-64.2073679 773.70221359 -54.00566332 764.54430708 -44 755 C-42.90558594 753.96746094 -42.90558594 753.96746094 -41.7890625 752.9140625 C-37.20038306 748.47047965 -33.17591083 743.67301354 -29.1875 738.6875 C-26.64573714 735.56476277 -23.96305511 732.59764629 -21.21484375 729.65625 C-19.70427695 727.93916486 -19.70427695 727.93916486 -20 725 C-49.85902745 715.51655807 -79.87206025 709.50547625 -111 717 Z M-159 903 C-159.93392578 903.71542969 -159.93392578 903.71542969 -160.88671875 904.4453125 C-167.58706746 909.71524969 -174.90420319 918.11009213 -176.5 926.6875 C-175.52603282 933.14003254 -171.36542208 938.19919714 -166.375 942.25 C-153.91147643 950.73081867 -136.95401881 954.42113476 -122 955 C-120.61554688 955.07734375 -120.61554688 955.07734375 -119.203125 955.15625 C-71.89470902 956.54088657 -28.86729505 938.75000048 5.6875 907.21875 C11.78499171 901.3684539 16.89004109 894.70973327 22 888 C17.43828555 877.98168931 6.60207714 871.59025594 -3.3125 867.75 C-55.83576668 850.53649243 -117.56775858 868.21184774 -159 903 Z M-63 995 C-64.01255859 995.23106445 -65.02511719 995.46212891 -66.06835938 995.70019531 C-106.885238 1003.84368485 -106.885238 1003.84368485 -139.6875 1027.4140625 C-141.85169489 1031.30726091 -142.98519297 1034.14119206 -143.0625 1038.625 C-138.0272245 1054.61940453 -125.32044778 1063.77342829 -111 1071.3125 C-88.70196993 1081.84861107 -66.54472234 1081.58926099 -43.54101562 1073.60864258 C-8.63765004 1060.60550426 14.82440923 1032.72829238 34 1002 C31.2729132 999.2729132 28.41319718 999.16144699 24.74609375 998.5625 C24.01238052 998.43689697 23.2786673 998.31129395 22.52272034 998.18188477 C20.95890779 997.91593426 19.39442118 997.65392241 17.8293457 997.39550781 C15.49719341 997.00987071 13.16750397 996.61159222 10.83789062 996.2109375 C-13.67718551 992.04602707 -38.51845785 989.15495935 -63 995 Z " fill="#96C228" transform="translate(1103,307)"https://robotics-smalabsa.github.io/peta/>
</svg>
