<?xml version="1.0" encoding="UTF-8"?>
<svg version="1.1" xmlns="http://www.w3.org/2000/svg" width="2048" height="2048">
<path d="M0 0 C0.65871094 0.43876465 1.31742188 0.8775293 1.99609375 1.32958984 C17.40202558 11.61898047 32.01423842 22.85550115 46 35 C46.73476562 35.63421875 47.46953125 36.2684375 48.2265625 36.921875 C52.74441171 40.84574403 57.17878079 44.8605066 61.60546875 48.88671875 C63.28423586 50.36830604 65.02301655 51.78331393 66.80078125 53.14453125 C67.52652344 53.75683594 68.25226562 54.36914062 69 55 C69 55.66 69 56.32 69 57 C69.99 57.33 70.98 57.66 72 58 C72 58.66 72 59.32 72 60 C72.57105469 60.24492187 73.14210938 60.48984375 73.73046875 60.7421875 C80.17394113 64.31326858 85.12336539 71.04188204 89.87109375 76.59375 C91.60150572 78.54959179 93.36127894 80.4518545 95.16015625 82.34375 C102.45746926 90.02028867 109.26454793 97.85189483 115.67773438 106.27929688 C116.99979046 107.99972733 118.34605903 109.69770962 119.703125 111.390625 C131.08906789 125.61032108 141.26864897 140.61115821 151 156 C152.04607422 157.64548828 152.04607422 157.64548828 153.11328125 159.32421875 C169.89512837 186.1280908 183.47376394 214.59847827 195 244 C195.37318359 244.93908203 195.74636719 245.87816406 196.13085938 246.84570312 C210.2466187 282.62504805 218.91558947 320.96438204 224 359 C224.24991699 360.86591797 224.24991699 360.86591797 224.50488281 362.76953125 C227.05366157 383.09643763 227.283788 403.46362985 227.30962753 423.92318726 C227.31244641 425.96125124 227.31796731 427.99929576 227.32363892 430.03735352 C227.35783547 453.79426972 226.32323773 477.41211262 222.875 500.9375 C222.77184479 501.64970703 222.66868958 502.36191406 222.56240845 503.09570312 C218.64095369 529.88272886 212.36992949 556.25822791 204 582 C203.62166016 583.16402344 203.24332031 584.32804688 202.85351562 585.52734375 C201.69117636 589.06623453 200.50801663 592.59718864 199.3125 596.125 C198.95615479 597.18605957 198.59980957 598.24711914 198.23266602 599.34033203 C193.29121013 613.56542401 185.63599677 625.71376387 172 633 C159.39894801 638.85788815 145.63092977 640.09435558 132.28515625 635.8671875 C129.38113503 634.76514868 126.70115727 633.53308926 124 632 C124 631.34 124 630.68 124 630 C123.4225 629.896875 122.845 629.79375 122.25 629.6875 C119.64338842 628.89103535 118.0264689 627.80934723 116 626 C116 625.34 116 624.68 116 624 C115.01 623.67 114.02 623.34 113 623 C113 622.34 113 621.68 113 621 C112.34 621 111.68 621 111 621 C103.2111947 610.21716926 99.26596205 598.31894697 100 585 C101.57384747 575.29852234 104.97799389 566.0045833 108.15353394 556.73907471 C116.72094586 531.6911094 122.30264047 506.21479982 126 480 C126.16516113 478.8567627 126.33032227 477.71352539 126.50048828 476.53564453 C131.29347028 441.95380856 130.86545443 405.54284426 126 371 C125.82307617 369.74106934 125.64615234 368.48213867 125.46386719 367.18505859 C116.13414458 302.96466233 91.75330343 243.30238704 55 190 C54.51402344 189.2898877 54.02804687 188.57977539 53.52734375 187.84814453 C46.86774313 178.14451004 39.53934637 169.02884885 32 160 C31.47051758 159.36465332 30.94103516 158.72930664 30.39550781 158.07470703 C24.722435 151.29199103 18.98921237 144.74868968 12.546875 138.671875 C11 137 11 137 11 135 C10.34 135 9.68 135 9 135 C9 134.34 9 133.68 9 133 C8.34 133 7.68 133 7 133 C7 132.34 7 131.68 7 131 C6.44441406 130.77441406 5.88882813 130.54882812 5.31640625 130.31640625 C2.31559681 128.61105586 0.32062463 126.43293684 -2.0625 123.9375 C-6.5298851 119.35138541 -11.19540577 115.22170174 -16.2109375 111.23046875 C-19.04825579 108.96140889 -21.80180363 106.6114221 -24.5625 104.25 C-36.9722266 93.90856117 -50.36469514 84.80763236 -64.03857422 76.23046875 C-65.27231562 75.45650103 -66.50350653 74.67843758 -67.73095703 73.89453125 C-86.85814351 61.69847042 -107.79254158 51.02794144 -129 43 C-129.94230469 42.64244629 -130.88460937 42.28489258 -131.85546875 41.91650391 C-221.11828676 8.35722742 -317.51727233 3.71458033 -452.11547852 49.30957031 C-502.65852783 72.780947 -551.64690887 105.24891426 -588.203125 147.92578125 C-590.1746243 150.20157718 -592.21134395 152.40922667 -594.25 154.625 C-599.83311892 160.82951158 -604.94766125 167.36361573 -610 174 C-610.54849609 174.71865234 -611.09699219 175.43730469 -611.66210938 176.17773438 C-624.11078411 192.56497287 -635.043908 209.64186479 -644.79101562 227.76269531 C-645.98554311 229.97324657 -647.20221505 232.17042477 -648.421875 234.3671875 C-675.2116084 283.18724723 -691.14673199 340.49245823 -695 396 C-695.08241943 397.14082031 -695.08241943 397.14082031 -695.16650391 398.3046875 C-695.55288798 403.86679459 -695.82073313 409.42749535 -696 415 C-696.02336426 415.71994141 -696.04672852 416.43988281 -696.07080078 417.18164062 C-697.26404694 461.26155739 -690.33506786 506.89929192 -676.71191406 548.80273438 C-676.015682 550.95159875 -675.34585584 553.1072793 -674.6796875 555.265625 C-660.97720805 598.83503335 -639.07691194 640.02312045 -611 676 C-610.23945312 677.01320313 -609.47890625 678.02640625 -608.6953125 679.0703125 C-604.10135529 685.18230519 -599.31042084 691.08797162 -594.3125 696.875 C-593.52891113 697.78439331 -593.52891113 697.78439331 -592.72949219 698.7121582 C-589.54600299 702.35936432 -586.21814821 705.79595824 -582.76928711 709.19165039 C-580.95464801 711.04635328 -579.2648481 712.97007717 -577.578125 714.94140625 C-573.88382001 719.21745102 -569.88198044 723.08799199 -565.75 726.9375 C-565.00057129 727.63842773 -564.25114258 728.33935547 -563.47900391 729.06152344 C-557.84233747 734.2965243 -552.044913 739.24141758 -546 744 C-544.7812789 744.98540661 -543.56392407 745.97250444 -542.34765625 746.9609375 C-535.40762902 752.58841145 -528.42945014 758.02656643 -521 763 C-519.63792544 763.92433862 -518.27595605 764.84883222 -516.9140625 765.7734375 C-507.45662771 772.1666348 -497.92249426 778.35224962 -488 784 C-487.14728516 784.48581543 -486.29457031 784.97163086 -485.41601562 785.47216797 C-457.08432955 801.48637257 -426.53632439 814.80922083 -394.95703125 823 C-391.9672767 824.01106627 -390.92135112 824.5957536 -389 827 C-388.74666583 829.91639061 -388.67635833 832.61462054 -388.7421875 835.52734375 C-388.75258812 836.8390303 -388.75258812 836.8390303 -388.76319885 838.17721558 C-388.77936504 840.0875777 -388.80210581 841.9978926 -388.83053589 843.90811157 C-388.90731303 849.13902232 -388.93492761 854.3702065 -388.96484375 859.6015625 C-388.97569756 861.24802513 -388.97569756 861.24802513 -388.98677063 862.92774963 C-389.04074647 873.81666965 -388.78846423 884.69208874 -388.51681519 895.57687378 C-388.05653642 914.35373264 -387.95185232 933.09536841 -388.3125 951.875 C-388.33822586 953.41131577 -388.33822586 953.41131577 -388.36447144 954.97866821 C-388.41611117 957.90017528 -388.48090273 960.82106529 -388.55078125 963.7421875 C-388.56551483 964.57653824 -388.58024841 965.41088898 -388.59542847 966.27052307 C-388.73027741 971.03338875 -389.2186784 975.62044191 -389.96777344 980.32705688 C-391.1136599 988.21481518 -391.53572027 996.07642771 -391.8503418 1004.02929688 C-391.91763813 1005.59783175 -391.98555248 1007.1663402 -392.0540247 1008.73482418 C-392.23839561 1012.99837853 -392.41412607 1017.26224992 -392.58831882 1021.52623057 C-392.77768208 1026.12374702 -392.97518789 1030.72091472 -393.17169189 1035.31813049 C-393.50928587 1043.24161484 -393.84181499 1051.16529839 -394.17086792 1059.08914185 C-394.64516273 1070.50956491 -395.12780405 1081.92962367 -395.61244309 1093.34961188 C-396.66247071 1118.09956977 -397.69898815 1142.85008686 -398.73269653 1167.6007309 C-399.1257172 1177.01070286 -399.51928638 1186.42065187 -399.91285384 1195.83060098 C-400.04056216 1198.88417692 -400.16824512 1201.93775393 -400.29592419 1204.9913311 C-400.70840961 1214.85547982 -401.12128257 1224.7196121 -401.5349884 1234.58370972 C-401.57474354 1235.53171043 -401.61449867 1236.47971113 -401.65545851 1237.45643914 C-401.979483 1245.18307123 -401.979483 1245.18307123 -402.13065302 1248.7860415 C-402.59057091 1259.74881811 -403.04789851 1270.71169583 -403.50069511 1281.67476898 C-403.78324834 1288.51406964 -404.06781651 1295.35328439 -404.35396206 1302.19243568 C-404.54943792 1306.86744218 -404.7423785 1311.54254324 -404.93325394 1316.2177397 C-405.04958165 1319.05081253 -405.16850934 1321.88377169 -405.28819716 1324.71670437 C-405.36765886 1326.61540885 -405.44403117 1328.51424186 -405.52027416 1330.41307831 C-405.56896806 1331.55297966 -405.61766195 1332.69288101 -405.66783142 1333.86732483 C-405.72829352 1335.32872186 -405.72829352 1335.32872186 -405.78997707 1336.81964207 C-406.05921406 1340.89667316 -406.52080949 1344.94299978 -407 1349 C-405.84200079 1348.99059922 -404.68400158 1348.98119844 -403.49091148 1348.97151279 C-389.76674836 1348.89587129 -376.08280534 1349.29658265 -362.36962891 1349.81030273 C-359.9657907 1349.89765431 -357.56194104 1349.98469139 -355.15808105 1350.07144165 C-348.69146356 1350.30575137 -342.22502081 1350.54458821 -335.75860643 1350.78443027 C-329.65266422 1351.01063505 -323.54658471 1351.23308809 -317.44052224 1351.4560181 C-305.34613992 1351.89772109 -293.25189253 1352.34301551 -281.15771484 1352.7902832 C-269.45860361 1353.22293921 -257.75938985 1353.65268024 -246.06005859 1354.0793457 C-233.26861439 1354.54584403 -220.47722807 1355.01387512 -207.68593919 1355.48461491 C-206.31938768 1355.53490511 -204.95283617 1355.58519504 -203.58628464 1355.6354847 C-202.91418324 1355.66022098 -202.24208183 1355.68495726 -201.54961372 1355.71044312 C-196.84214281 1355.88360881 -192.13463493 1356.05574567 -187.42711258 1356.22750664 C-181.0821222 1356.45917898 -174.73722682 1356.693305 -168.39239502 1356.92927933 C-166.07298196 1357.01516508 -163.75353869 1357.10023972 -161.43406296 1357.18441582 C-149.93849826 1357.60211614 -138.46579271 1358.04250544 -127 1359 C-127.00325255 1358.38112065 -127.00650511 1357.76224131 -127.00985622 1357.12460804 C-127.13114521 1329.21749063 -126.75945301 1301.31296399 -126.45113165 1273.4080867 C-126.39428306 1268.26112688 -126.33811795 1263.11415998 -126.2823925 1257.96718788 C-126.27435514 1257.22490966 -126.26631778 1256.48263143 -126.25803686 1255.71785993 C-126.24169032 1254.20798491 -126.22534506 1252.69810989 -126.20900106 1251.18823484 C-126.056558 1237.11273299 -125.90204301 1223.03725449 -125.74680083 1208.96178327 C-125.61524826 1197.02963445 -125.48553029 1185.09746686 -125.35717773 1173.1652832 C-125.20663568 1159.17031106 -125.05482139 1145.17535354 -124.90118736 1131.18041497 C-124.88459763 1129.66888926 -124.86800959 1128.15736353 -124.85142326 1126.64583778 C-124.83919584 1125.53160118 -124.83919584 1125.53160118 -124.82672139 1124.39485475 C-124.77090515 1119.30114337 -124.71592841 1114.20742339 -124.66131783 1109.11369896 C-124.25293839 1071.07271487 -123.70827953 1033.03659684 -123 995 C-124.01361288 994.9730625 -125.02722576 994.94612499 -126.07155418 994.9183712 C-147.25947648 994.35442279 -168.44587754 993.75858903 -189.62615776 992.95176506 C-193.58587806 992.80110278 -197.54560385 992.6572847 -201.50610352 992.52856445 C-205.46458136 992.39973435 -209.42212701 992.25404315 -213.37958717 992.09711647 C-214.8473952 992.04158251 -216.31542555 991.99155718 -217.78363609 991.94794273 C-230.81210868 991.55397678 -249.16785237 990.68154581 -259 981 C-261.62990282 975.12837682 -261.6915403 968.79923581 -262.1105957 962.47045898 C-262.19488736 961.23281264 -262.27917902 959.9951663 -262.36602497 958.72001553 C-263.23024668 944.97034707 -263.27014346 931.24416676 -263.23046875 917.47265625 C-263.22857934 914.67039425 -263.22957698 911.86813456 -263.23031616 909.06587219 C-263.23014379 902.37284135 -263.21878145 895.67987756 -263.20283461 888.98686749 C-263.19010029 883.56450864 -263.18182289 878.14215834 -263.17623901 872.7197876 C-263.13154831 830.60373016 -262.94559372 788.48942868 -262.5625 746.375 C-262.55270992 745.27501301 -262.54291985 744.17502602 -262.5328331 743.04170609 C-262.47594269 736.67971206 -262.41468587 730.31778385 -262.34724808 723.95589256 C-262.32765011 722.092509 -262.3087755 720.22911757 -262.29087448 718.36571693 C-262.08682916 697.57312767 -261.51682587 676.78664569 -261 656 C-261.94933474 655.99061433 -262.89866947 655.98122866 -263.87677193 655.97155857 C-287.16490522 655.74117506 -310.45299995 655.50715892 -333.74106026 655.26950932 C-345.00378983 655.15465648 -356.26652839 655.04090958 -367.52929688 654.92993164 C-377.36600325 654.83300245 -387.20268426 654.73382993 -397.03934276 654.63215441 C-402.22949338 654.57858029 -407.41964901 654.52599924 -412.60983658 654.4761219 C-424.84327102 654.35797999 -437.07613916 654.21846348 -449.30883503 654.038836 C-452.03143451 653.99954637 -454.75406469 653.96331647 -457.47670746 653.92716599 C-461.87881807 653.86665532 -466.28038286 653.78982632 -470.68201041 653.70101249 C-472.30048482 653.67028864 -473.91905419 653.64414071 -475.53768373 653.62312138 C-487.60479387 653.46035807 -498.23207072 652.28713874 -508.6875 645.8125 C-509.30560547 645.44447266 -509.92371094 645.07644531 -510.56054688 644.69726562 C-512.04735774 643.80978937 -513.52480469 642.90665288 -515 642 C-515 641.34 -515 640.68 -515 640 C-515.66 640 -516.32 640 -517 640 C-527.00208381 630.01756665 -532.7736293 617.31040294 -533.3125 603.1875 C-533.03649095 591.33751142 -528.4593627 578.31151739 -521 569 C-520.34 569 -519.68 569 -519 569 C-518.67 568.01 -518.34 567.02 -518 566 C-517.34 566 -516.68 566 -516 566 C-516 565.34 -516 564.68 -516 564 C-500.31450563 551.10303796 -482.3595678 551.71075751 -463.15625 551.98828125 C-460.98673979 552.01177199 -458.81721909 552.03431027 -456.64768982 552.05596924 C-452.01689198 552.10423497 -447.38624106 552.15919076 -442.75558472 552.21951294 C-435.40560433 552.31523067 -428.05550204 552.39569761 -420.70532227 552.47436523 C-406.97335458 552.62350535 -393.24160798 552.78873519 -379.50986481 552.9571228 C-365.16426291 553.13237149 -350.81858409 553.30136607 -336.47284031 553.46457767 C-331.74006155 553.5184628 -327.00730151 553.57345128 -322.27456665 553.631073 C-301.12434048 553.88744678 -279.97996033 554.02963457 -258.828125 553.95703125 C-256.84855674 553.95124412 -254.86898825 553.94553159 -252.88941956 553.93989563 C-244.41853967 553.91405246 -235.94804785 553.88063168 -227.47742653 553.80796719 C-224.07584551 553.78144397 -220.67428151 553.76678635 -217.27262115 553.75487328 C-215.70601785 553.74654369 -214.13943208 553.73283203 -212.57292938 553.7132206 C-198.05253708 553.53377628 -198.05253708 553.53377628 -191 557 C-190.22269531 557.350625 -189.44539063 557.70125 -188.64453125 558.0625 C-180.78999242 562.08188021 -180.78999242 562.08188021 -178 564 C-178 564.66 -178 565.32 -178 566 C-177.01 566.33 -176.02 566.66 -175 567 C-175 567.66 -175 568.32 -175 569 C-174.34 569 -173.68 569 -173 569 C-173 569.66 -173 570.32 -173 571 C-172.01 571.33 -171.02 571.66 -170 572 C-168.28125 574.40625 -168.28125 574.40625 -166.5 577.5 C-165.9121875 578.5003125 -165.324375 579.500625 -164.71875 580.53125 C-160.05659663 589.94032316 -159.58344803 598.3893639 -159.671875 608.75830078 C-159.67457726 610.363904 -159.67601871 611.96950974 -159.67631531 613.5751152 C-159.68127271 617.97663122 -159.70572359 622.37785076 -159.73389816 626.7792716 C-159.75569235 630.55700658 -159.76630046 634.33474157 -159.77699566 638.11252177 C-159.81617675 651.74192507 -159.90320802 665.37090061 -160 679 C-160.00769157 680.09687826 -160.01538315 681.19375652 -160.0233078 682.32387352 C-160.2527886 714.90338813 -160.55973248 747.48206692 -160.89076138 780.06068826 C-161.01513203 792.31615984 -161.13444394 804.57167948 -161.25351524 816.82720351 C-161.49707254 841.88485575 -161.74640428 866.94244747 -162 892 C-160.77247245 892.04006967 -160.77247245 892.04006967 -159.52014637 892.08094883 C-140.21095881 892.71302182 -120.90712274 893.40673812 -101.60571289 894.24731445 C-98.6228086 894.37676124 -95.63975759 894.501432 -92.65649414 894.62231445 C-88.96464412 894.77194386 -85.27321036 894.92948629 -81.58193398 895.09263802 C-80.20231887 895.15235059 -78.82258528 895.20939719 -77.44273949 895.26351738 C-62.53572951 895.85261854 -48.88389327 898.58162814 -37.609375 909.2421875 C-24.72490825 923.31502739 -21.05917705 937.79503878 -21.36352539 956.2902832 C-21.37059806 958.098151 -21.37504057 959.90603062 -21.37712669 961.71391106 C-21.39078957 966.67166114 -21.44278428 971.62836325 -21.50158191 976.58575606 C-21.55918996 981.9949709 -21.58160464 987.40436216 -21.60939026 992.813797 C-21.67147326 1003.64505004 -21.76969926 1014.47570762 -21.88136035 1025.30655247 C-21.97711139 1034.60060374 -22.06254477 1043.89470523 -22.14227295 1053.18890381 C-22.45949325 1089.93915171 -22.85455601 1126.6882961 -23.27959883 1163.43743908 C-23.40380989 1174.18832059 -23.52441246 1184.93923865 -23.64282227 1195.69018555 C-23.65121785 1196.4524009 -23.65961343 1197.21461625 -23.66826343 1197.99992903 C-23.70209236 1201.07170157 -23.73591829 1204.14347414 -23.76973578 1207.21524681 C-23.90253367 1219.26903421 -24.03769196 1231.32279534 -24.17327861 1243.37655165 C-24.21325439 1246.93056084 -24.25315095 1250.48457087 -24.29281878 1254.03858352 C-24.48264754 1271.04366183 -24.68206006 1288.04858866 -24.89936447 1305.05334091 C-24.96958463 1310.55079185 -25.03676011 1316.04826935 -25.10210037 1321.54578018 C-25.17970285 1328.0571697 -25.26328346 1334.5684581 -25.352941 1341.07969299 C-25.40002271 1344.50682698 -25.44426055 1347.9339281 -25.48375213 1351.36116254 C-26.30876809 1422.13692768 -26.30876809 1422.13692768 -39.0625 1439.125 C-39.71347656 1440.01445313 -40.36445312 1440.90390625 -41.03515625 1441.8203125 C-42.94874023 1443.94313528 -44.3698028 1444.95729376 -47 1446 C-47 1446.66 -47 1447.32 -47 1448 C-60.44000698 1457.93609454 -76.08421427 1461.20072541 -92.47973633 1461.19702148 C-93.14701866 1461.19706645 -93.81430099 1461.19711141 -94.50180399 1461.19715774 C-118.90294024 1461.161487 -143.29657101 1460.0114864 -167.6770956 1459.09632919 C-175.17253091 1458.81518546 -182.6682072 1458.54072528 -190.16389749 1458.26647871 C-203.55141535 1457.77647678 -216.93873024 1457.28114276 -230.32592773 1456.7824707 C-243.25321481 1456.30093904 -256.18061183 1455.82252742 -269.1081543 1455.34790039 C-270.30538855 1455.30394356 -270.30538855 1455.30394356 -271.52680936 1455.25909872 C-274.73723346 1455.14123487 -277.9476579 1455.02338001 -281.15808288 1454.90554011 C-295.0728733 1454.3947146 -308.98757042 1453.88135568 -322.90225413 1453.36763296 C-325.13348993 1453.28527543 -327.36472777 1453.20297371 -329.5959661 1453.12068486 C-337.41449496 1452.83227629 -345.23299302 1452.54306476 -353.05141618 1452.25180347 C-356.27642039 1452.13166287 -359.50143898 1452.0119408 -362.72648621 1451.89295959 C-375.23568086 1451.43115659 -387.74227488 1450.95619987 -400.24341458 1450.30742508 C-407.33803183 1449.94827585 -414.39630743 1449.9327492 -421.5 1450.04296875 C-424.06119047 1450.0653232 -426.62238889 1450.08678219 -429.18359375 1450.10742188 C-433.11106811 1450.14460361 -437.03811738 1450.18807028 -440.96533203 1450.24682617 C-444.83111591 1450.30161417 -448.69642353 1450.3304558 -452.5625 1450.35546875 C-453.72007812 1450.37925095 -454.87765625 1450.40303314 -456.0703125 1450.42753601 C-465.64993428 1450.45793195 -474.49563945 1448.52999809 -483 1444 C-483 1443.34 -483 1442.68 -483 1442 C-483.70125 1441.773125 -484.4025 1441.54625 -485.125 1441.3125 C-489.24321571 1439.432445 -493.20709928 1437.09552334 -494.875 1432.6875 C-494.936875 1431.8521875 -494.936875 1431.8521875 -495 1431 C-495.66 1431 -496.32 1431 -497 1431 C-504.59397551 1420.80808551 -506.65116527 1409.45113558 -506.35900879 1396.972229 C-506.34370951 1395.69570599 -506.32841023 1394.41918297 -506.31264734 1393.10397744 C-506.05622653 1374.93497244 -505.18617309 1356.77174785 -504.3936832 1338.62027645 C-504.15586803 1333.14018727 -503.92556322 1327.65978131 -503.69429016 1322.17941284 C-503.29403656 1312.71795946 -502.88924409 1303.25670945 -502.48127747 1293.79558563 C-501.8910271 1280.10609761 -501.30832131 1266.41629617 -500.72743934 1252.7264078 C-499.78386182 1230.49252984 -498.83496777 1208.2588818 -497.88232422 1186.02539062 C-497.65230737 1180.65694242 -497.42229675 1175.28849395 -497.19232178 1169.92004395 C-497.1637903 1169.2540174 -497.13525881 1168.58799085 -497.10586274 1167.90178168 C-496.44142663 1152.39032313 -495.77924936 1136.87876837 -495.11767578 1121.3671875 C-495.08928872 1120.70163876 -495.06090166 1120.03609002 -495.03165438 1119.35037313 C-494.38331653 1104.14949585 -493.73561484 1088.94859153 -493.08869171 1073.74765396 C-493.03435546 1072.47092664 -492.98001921 1071.19419933 -492.92403641 1069.8787833 C-492.70684821 1064.77536953 -492.48966643 1059.67195549 -492.27256066 1054.56853822 C-491.63778446 1039.64746147 -491.00116394 1024.72646614 -490.36118662 1009.80561152 C-489.96044875 1000.46153221 -489.56107581 991.11739527 -489.16277397 981.77321181 C-488.93300625 976.38450693 -488.70250867 970.99583568 -488.47013283 965.60724258 C-488.25737525 960.67353128 -488.04656719 955.73974063 -487.8372882 950.80588058 C-487.76132261 949.02326814 -487.68463425 947.24068633 -487.60714167 945.45813963 C-486.77156473 928.44751536 -486.77156473 928.44751536 -488 911.5 C-488.80320506 905.2789495 -489.19951087 899.28459234 -489 893 C-490.155 892.67 -491.31 892.34 -492.5 892 C-499.14997697 889.76281639 -505.28112934 886.50057794 -511.49609375 883.28662109 C-514.23852259 881.87743623 -516.99385639 880.49543825 -519.75 879.11328125 C-540.46972105 868.63600295 -560.13190669 856.52592231 -579 843 C-579.76151367 842.4548877 -580.52302734 841.90977539 -581.30761719 841.34814453 C-590.99035727 834.38612624 -600.41739445 827.24500671 -609.39794922 819.39599609 C-611.76422431 817.33406971 -614.15205693 815.29758693 -616.5378418 813.25830078 C-618.80247568 811.32200119 -621.06439095 809.38263555 -623.31933594 807.43505859 C-624.52578682 806.40491358 -625.7440619 805.38855598 -626.96972656 804.38134766 C-627.61135742 803.84944824 -628.25298828 803.31754883 -628.9140625 802.76953125 C-629.50396973 802.28718018 -630.09387695 801.8048291 -630.70166016 801.30786133 C-632 800 -632 800 -632 798 C-632.57129639 797.7539502 -633.14259277 797.50790039 -633.73120117 797.25439453 C-636.37992243 795.78994496 -638.16685594 794.0756157 -640.30078125 791.9296875 C-641.11353516 791.115 -641.92628906 790.3003125 -642.76367188 789.4609375 C-643.60478516 788.60757813 -644.44589844 787.75421875 -645.3125 786.875 C-646.14201172 786.04484375 -646.97152344 785.2146875 -647.82617188 784.359375 C-652.19114761 779.96339312 -656.4073219 775.49232112 -660.44702148 770.79589844 C-662.69299191 768.19860895 -665.03461298 765.70007766 -667.375 763.1875 C-672.48343601 757.63749763 -677.34144381 751.93500712 -682 746 C-682.5578418 745.29294922 -683.11568359 744.58589844 -683.69042969 743.85742188 C-706.27314217 715.11148614 -725.9872296 684.03928765 -741.95507812 651.13867188 C-743.05301763 648.89148728 -744.17463742 646.65701375 -745.296875 644.421875 C-782.50918214 569.38955974 -797.07956501 483.95953611 -767.95556641 263.83544922 C-767.64022949 262.89975098 -767.32489258 261.96405273 -767 261 C-766.44126181 259.30343298 -765.88266106 257.60682069 -765.32421875 255.91015625 C-744.52867285 193.70418687 -709.34073306 134.48362181 -664.98046875 86.1640625 C-663.09159671 84.10008792 -661.2605374 81.99709746 -659.4375 79.875 C-655.81778311 75.71778455 -651.93032199 71.86096336 -648 68 C-645.00742436 65.02314718 -642.0393255 62.0235302 -639.08203125 59.01171875 C-637.65895533 57.57021262 -636.23577606 56.12880852 -634.8125 54.6875 C-634.08869141 53.94693359 -633.36488281 53.20636719 -632.61914062 52.44335938 C-631.92626953 51.74404297 -631.23339844 51.04472656 -630.51953125 50.32421875 C-629.89151611 49.68572998 -629.26350098 49.04724121 -628.61645508 48.3894043 C-627 47 -627 47 -625 47 C-625 46.34 -625 45.68 -625 45 C-623.49212839 43.62508701 -621.91460239 42.32635538 -620.3125 41.0625 C-616.15320356 37.74245246 -612.08543659 34.36119764 -608.0625 30.875 C-592.04041056 17.22206742 -574.64146875 5.43642137 -557 -6 C-556.36578125 -6.4129834 -555.7315625 -6.8259668 -555.078125 -7.25146484 C-551.44397422 -9.60329846 -547.74343948 -11.82814754 -544 -14 C-543.17612793 -14.48082031 -542.35225586 -14.96164062 -541.50341797 -15.45703125 C-463.09966784 -60.96514734 -376.23023546 -83.75214796 0 0 Z " fill="#FEE100" transform="translate(1327,376)"https://robotics-smalabsa.github.io/peta/>
<path d="M0 0 C2.16951021 0.02349074 4.33903091 0.04602902 6.50856018 0.06768799 C11.13935802 0.11595372 15.77000894 0.17090951 20.40066528 0.23123169 C27.75064567 0.32694942 35.10074796 0.40741636 42.45092773 0.48608398 C56.18289542 0.6352241 69.91464202 0.80045394 83.64638519 0.96884155 C97.99198709 1.14409024 112.33766591 1.31308482 126.68340969 1.47629642 C131.41618845 1.53018155 136.14894849 1.58517003 140.88168335 1.64279175 C162.03190952 1.89916553 183.17628967 2.04135332 204.328125 1.96875 C206.30769326 1.96296287 208.28726175 1.95725034 210.26683044 1.95161438 C218.73771033 1.92577121 227.20820215 1.89235043 235.67882347 1.81968594 C239.08040449 1.79316272 242.48196849 1.7785051 245.88362885 1.76659203 C247.45023215 1.75826244 249.01681792 1.74455078 250.58332062 1.72493935 C265.10371292 1.54549503 265.10371292 1.54549503 272.15625 5.01171875 C272.93355469 5.36234375 273.71085937 5.71296875 274.51171875 6.07421875 C282.36625758 10.09359896 282.36625758 10.09359896 285.15625 12.01171875 C285.15625 12.67171875 285.15625 13.33171875 285.15625 14.01171875 C286.14625 14.34171875 287.13625 14.67171875 288.15625 15.01171875 C288.15625 15.67171875 288.15625 16.33171875 288.15625 17.01171875 C288.81625 17.01171875 289.47625 17.01171875 290.15625 17.01171875 C290.15625 17.67171875 290.15625 18.33171875 290.15625 19.01171875 C291.14625 19.34171875 292.13625 19.67171875 293.15625 20.01171875 C294.875 22.41796875 294.875 22.41796875 296.65625 25.51171875 C297.2440625 26.51203125 297.831875 27.51234375 298.4375 28.54296875 C303.09965337 37.95204191 303.57280197 46.40108265 303.484375 56.77001953 C303.48167274 58.37562275 303.48023129 59.98122849 303.47993469 61.58683395 C303.47497729 65.98834997 303.45052641 70.38956951 303.42235184 74.79099035 C303.40055765 78.56872533 303.38994954 82.34646032 303.37925434 86.12424052 C303.34007325 99.75364382 303.25304198 113.38261936 303.15625 127.01171875 C303.14855843 128.10859701 303.14086685 129.20547527 303.1329422 130.33559227 C302.9034614 162.91510688 302.59651752 195.49378567 302.26548862 228.07240701 C302.14111797 240.32787859 302.02180606 252.58339823 301.90273476 264.83892226 C301.65917746 289.8965745 301.40984572 314.95416622 301.15625 340.01171875 C301.9746017 340.03843186 302.7929534 340.06514498 303.63610363 340.09266758 C322.94529119 340.72474057 342.24912726 341.41845687 361.55053711 342.2590332 C364.5334414 342.38847999 367.51649241 342.51315075 370.49975586 342.6340332 C374.19160588 342.78366261 377.88303964 342.94120504 381.57431602 343.10435677 C382.95393113 343.16406934 384.33366472 343.22111594 385.71351051 343.27523613 C400.62052049 343.86433729 414.27235673 346.59334689 425.546875 357.25390625 C438.43134175 371.32674614 442.09707295 385.80675753 441.79272461 404.30200195 C441.78565194 406.10986975 441.78120943 407.91774937 441.77912331 409.72562981 C441.76546043 414.68337989 441.71346572 419.640082 441.65466809 424.59747481 C441.59706004 430.00668965 441.57464536 435.41608091 441.54685974 440.82551575 C441.48477674 451.65676879 441.38655074 462.48742637 441.27488965 473.31827122 C441.17913861 482.61232249 441.09370523 491.90642398 441.01397705 501.20062256 C440.69675675 537.95087046 440.30169399 574.70001485 439.87665117 611.44915783 C439.75244011 622.20003934 439.63183754 632.9509574 439.51342773 643.7019043 C439.50083436 644.84522732 439.50083436 644.84522732 439.48798657 646.01164778 C439.45415764 649.08342032 439.42033171 652.15519289 439.38651422 655.22696556 C439.25371633 667.28075296 439.11855804 679.33451409 438.98297139 691.3882704 C438.94299561 694.94227959 438.90309905 698.49628962 438.86343122 702.05030227 C438.67360246 719.05538058 438.47418994 736.06030741 438.25688553 753.06505966 C438.18666537 758.5625106 438.11948989 764.0599881 438.05414963 769.55749893 C437.97654715 776.06888845 437.89296654 782.58017685 437.803309 789.09141174 C437.75622729 792.51854573 437.71198945 795.94564685 437.67249787 799.37288129 C436.84748191 870.14864643 436.84748191 870.14864643 424.09375 887.13671875 C423.44277344 888.02617188 422.79179688 888.915625 422.12109375 889.83203125 C420.20750977 891.95485403 418.7864472 892.96901251 416.15625 894.01171875 C416.15625 894.67171875 416.15625 895.33171875 416.15625 896.01171875 C402.71624302 905.94781329 387.07203573 909.21244416 370.67651367 909.20874023 C370.00923134 909.2087852 369.34194901 909.20883016 368.65444601 909.20887649 C344.25330976 909.17320575 319.85967899 908.02320515 295.4791544 907.10804794 C287.98371909 906.82690421 280.4880428 906.55244403 272.99235251 906.27819746 C259.60483465 905.78819553 246.21751976 905.29286151 232.83032227 904.79418945 C219.90303519 904.31265779 206.97563817 903.83424617 194.0480957 903.35961914 C192.85086145 903.31566231 192.85086145 903.31566231 191.62944064 903.27081747 C188.41901654 903.15295362 185.2085921 903.03509876 181.99816712 902.91725886 C168.0833767 902.40643335 154.16867958 901.89307443 140.25399587 901.37935171 C138.02276007 901.29699418 135.79152223 901.21469246 133.5602839 901.13240361 C125.74175504 900.84399504 117.92325698 900.55478351 110.10483382 900.26352222 C106.87982961 900.14338162 103.65481102 900.02365955 100.42976379 899.90467834 C87.92056914 899.44287534 75.41397512 898.96791862 62.91283542 898.31914383 C55.81821817 897.9599946 48.75994257 897.94446795 41.65625 898.0546875 C39.09505953 898.07704195 36.53386111 898.09850094 33.97265625 898.11914062 C30.04518189 898.15632236 26.11813262 898.19978903 22.19091797 898.25854492 C18.32513409 898.31333292 14.45982647 898.34217455 10.59375 898.3671875 C9.43617188 898.3909697 8.27859375 898.41475189 7.0859375 898.43925476 C-2.49368428 898.4696507 -11.33938945 896.54171684 -19.84375 892.01171875 C-19.84375 891.35171875 -19.84375 890.69171875 -19.84375 890.01171875 C-20.545 889.78484375 -21.24625 889.55796875 -21.96875 889.32421875 C-26.08696571 887.44416375 -30.05084928 885.10724209 -31.71875 880.69921875 C-31.76 880.14234375 -31.80125 879.58546875 -31.84375 879.01171875 C-32.50375 879.01171875 -33.16375 879.01171875 -33.84375 879.01171875 C-41.51152852 868.72075284 -43.48901393 857.30258847 -43.19029236 844.71231079 C-43.17467693 843.42893723 -43.15906151 842.14556367 -43.14297289 840.8233 C-43.08314486 836.55150431 -42.9702985 832.28200559 -42.84375 828.01171875 C-42.82196407 827.27393832 -42.80017815 826.53615788 -42.77773204 825.77602047 C-42.42177501 814.05832627 -41.9294713 802.3467412 -41.42117822 790.63483381 C-41.20997923 785.735485 -41.006236 780.83582467 -40.80148315 775.936203 C-40.40128665 766.38687689 -39.99445777 756.8378449 -39.58527131 747.28890024 C-39.10810769 736.14739499 -38.63778519 725.0056039 -38.16770636 713.86379786 C-37.32877975 693.98482494 -36.48388619 674.10611024 -35.63549805 654.22753906 C-34.81354752 634.96827715 -33.99566673 615.70884821 -33.18237305 596.44921875 C-33.13215953 595.26012607 -33.081946 594.0710334 -33.03021086 592.84590761 C-32.98008193 591.65879559 -32.929953 590.47168357 -32.87830502 589.24859846 C-32.77735684 586.85805083 -32.67640706 584.46750328 -32.57545567 582.0769558 C-32.52566208 580.89782188 -32.47586849 579.71868796 -32.424566 578.50382271 C-31.64687554 560.09170837 -30.86550645 541.67974992 -30.0837542 523.26780766 C-29.80118602 516.61165319 -29.51915657 509.95547615 -29.23752064 503.29928218 C-28.79129057 492.7534001 -28.34347093 482.20758823 -27.89236493 471.6619135 C-27.68648181 466.84823519 -27.48134829 462.03452829 -27.27833748 457.22072792 C-27.09228618 452.809796 -26.90393949 448.39896811 -26.7138015 443.98821051 C-26.64564268 442.3980924 -26.57829379 440.80793931 -26.51186521 439.21774797 C-26.14563011 430.46325958 -25.66286022 421.73726156 -24.84375 413.01171875 C-24.51375 413.01171875 -24.18375 413.01171875 -23.84375 413.01171875 C-23.78316406 414.08292969 -23.72257813 415.15414063 -23.66015625 416.2578125 C-23.57576463 417.65496266 -23.49111594 419.05209732 -23.40625 420.44921875 C-23.36693359 421.15626953 -23.32761719 421.86332031 -23.28710938 422.59179688 C-23.36750562 426.09862294 -23.36750562 426.09862294 -21.84375 429.01171875 C0.32027446 433.63976953 24.20465821 432.10465066 46.71875 432.13671875 C48.34923782 432.140737 48.34923782 432.140737 50.01266479 432.14483643 C53.1243631 432.15065538 56.23595748 432.1489803 59.34765625 432.14453125 C60.29331451 432.14650513 61.23897278 432.148479 62.21328735 432.1505127 C63.08464325 432.14741089 63.95599915 432.14430908 64.85375977 432.14111328 C65.61535904 432.14031769 66.37695831 432.13952209 67.16163635 432.13870239 C69.36621688 432.08357124 69.36621688 432.08357124 72.15625 431.01171875 C69.56786795 494.21889002 66.92987635 557.42389738 64.26785088 620.62800598 C64.13119616 623.87277189 63.9945491 627.11753812 63.85791016 630.36230469 C63.80701731 631.57084297 63.80701731 631.57084297 63.75509633 632.80379617 C63.19792444 646.03644125 62.64319289 659.2691876 62.08933137 672.5019716 C61.5140987 686.24424421 60.93653085 699.98641717 60.35672295 713.72849751 C60.03377484 721.38418956 59.71185306 729.03992168 59.39263535 736.69577026 C59.12312059 743.15957538 58.85152094 749.62328855 58.57717429 756.08689046 C58.43774283 759.3734326 58.29964214 762.66002104 58.16358566 765.94670486 C58.01588155 769.510903 57.86435652 773.07491916 57.71188354 776.63891602 C57.67015137 777.66793502 57.62841919 778.69695402 57.5854224 779.75715542 C57.33293329 785.54950964 56.86291963 791.25657502 56.15625 797.01171875 C57.31424921 797.00231797 58.47224842 796.99291719 59.66533852 796.98323154 C73.38950164 796.90759004 87.07344466 797.3083014 100.78662109 797.82202148 C103.1904593 797.90937306 105.59430896 797.99641014 107.99816895 798.0831604 C114.46478644 798.31747012 120.93122919 798.55630696 127.39764357 798.79614902 C133.50358578 799.0223538 139.60966529 799.24480684 145.71572776 799.46773685 C157.81011008 799.90943984 169.90435747 800.35473426 181.99853516 800.80200195 C193.69764639 801.23465796 205.39686015 801.66439899 217.09619141 802.09106445 C229.88763561 802.55756278 242.67902193 803.02559387 255.47031081 803.49633366 C256.83686232 803.54662386 258.20341383 803.59691379 259.56996536 803.64720345 C260.24206676 803.67193973 260.91416817 803.69667601 261.60663628 803.72216187 C266.31410719 803.89532756 271.02161507 804.06746442 275.72913742 804.23922539 C282.0741278 804.47089773 288.41902318 804.70502375 294.76385498 804.94099808 C297.08326804 805.02688383 299.40271131 805.11195847 301.72218704 805.19613457 C313.21775174 805.61383489 324.69045729 806.05422419 336.15625 807.01171875 C336.15299745 806.3928394 336.14974489 805.77396006 336.14639378 805.13632679 C336.02510479 777.22920938 336.39679699 749.32468274 336.70511835 721.41980545 C336.76196694 716.27284563 336.81813205 711.12587873 336.8738575 705.97890663 C336.88591354 704.86548929 336.88591354 704.86548929 336.89821314 703.72957868 C336.91455968 702.21970366 336.93090494 700.70982864 336.94724894 699.19995359 C337.099692 685.12445174 337.25420699 671.04897324 337.40944917 656.97350202 C337.54100174 645.0413532 337.67071971 633.10918561 337.79907227 621.17700195 C337.94961432 607.18202981 338.10142861 593.18707229 338.25506264 579.19213372 C338.27165237 577.68060801 338.28824041 576.16908228 338.30482674 574.65755653 C338.31705416 573.54331993 338.31705416 573.54331993 338.32952861 572.4065735 C338.38534485 567.31286212 338.44032159 562.21914214 338.49493217 557.12541771 C338.90331161 519.08443362 339.44797047 481.04831559 340.15625 443.01171875 C339.14263712 442.98478125 338.12902424 442.95784374 337.08469582 442.93008995 C315.89677352 442.36614154 294.71037246 441.77030778 273.53009224 440.96348381 C269.57037194 440.81282153 265.61064615 440.66900345 261.65014648 440.5402832 C257.69166864 440.4114531 253.73412299 440.2657619 249.77666283 440.10883522 C248.3088548 440.05330126 246.84082445 440.00327593 245.37261391 439.95966148 C232.34414132 439.56569553 213.98839763 438.69326456 204.15625 429.01171875 C201.52634718 423.14009557 201.4647097 416.81095456 201.0456543 410.48217773 C200.96136264 409.24453139 200.87707098 408.00688505 200.79022503 406.73173428 C199.92600332 392.98206582 199.88610654 379.25588551 199.92578125 365.484375 C199.92767066 362.682113 199.92667302 359.87985331 199.92593384 357.07759094 C199.92610621 350.3845601 199.93746855 343.69159631 199.95341539 336.99858624 C199.96614971 331.57622739 199.97442711 326.15387709 199.98001099 320.73150635 C200.02470169 278.61544891 200.21065628 236.50114743 200.59375 194.38671875 C200.60354008 193.28673176 200.61333015 192.18674477 200.6234169 191.05342484 C200.68030731 184.69143081 200.74156413 178.3295026 200.80900192 171.96761131 C200.82859989 170.10422775 200.8474745 168.24083632 200.86537552 166.37743568 C201.06942084 145.58484642 201.63942413 124.79836444 202.15625 104.01171875 C201.20691526 104.00233308 200.25758053 103.99294741 199.27947807 103.98327732 C175.99134478 103.75289381 152.70325005 103.51887767 129.41518974 103.28122807 C118.15246017 103.16637523 106.88972161 103.05262833 95.62695312 102.94165039 C85.79024675 102.8447212 75.95356574 102.74554868 66.11690724 102.64387316 C60.92675662 102.59029904 55.73660099 102.53771799 50.54641342 102.48784065 C38.31297898 102.36969874 26.08011084 102.23018223 13.84741497 102.05055475 C11.12481549 102.01126512 8.40218531 101.97503522 5.67954254 101.93888474 C1.27743193 101.87837407 -3.12413286 101.80154507 -7.52576041 101.71273124 C-9.14423482 101.68200739 -10.76280419 101.65585946 -12.38143373 101.63484013 C-24.44854387 101.47207682 -35.07582072 100.29885749 -45.53125 93.82421875 C-46.14935547 93.45619141 -46.76746094 93.08816406 -47.40429688 92.70898438 C-48.89110774 91.82150812 -50.36855469 90.91837163 -51.84375 90.01171875 C-51.84375 89.35171875 -51.84375 88.69171875 -51.84375 88.01171875 C-52.50375 88.01171875 -53.16375 88.01171875 -53.84375 88.01171875 C-63.84583381 78.0292854 -69.6173793 65.32212169 -70.15625 51.19921875 C-69.88024095 39.34923017 -65.3031127 26.32323614 -57.84375 17.01171875 C-57.18375 17.01171875 -56.52375 17.01171875 -55.84375 17.01171875 C-55.51375 16.02171875 -55.18375 15.03171875 -54.84375 14.01171875 C-54.18375 14.01171875 -53.52375 14.01171875 -52.84375 14.01171875 C-52.84375 13.35171875 -52.84375 12.69171875 -52.84375 12.01171875 C-37.15825563 -0.88524329 -19.2033178 -0.27752374 0 0 Z " fill="#0098FE" transform="translate(863.84375,927.98828125)"https://robotics-smalabsa.github.io/peta/>
<path d="M0 0 C2.16951021 0.02349074 4.33903091 0.04602902 6.50856018 0.06768799 C11.13935802 0.11595372 15.77000894 0.17090951 20.40066528 0.23123169 C27.75064567 0.32694942 35.10074796 0.40741636 42.45092773 0.48608398 C56.18289542 0.6352241 69.91464202 0.80045394 83.64638519 0.96884155 C97.99198709 1.14409024 112.33766591 1.31308482 126.68340969 1.47629642 C131.41618845 1.53018155 136.14894849 1.58517003 140.88168335 1.64279175 C162.03190952 1.89916553 183.17628967 2.04135332 204.328125 1.96875 C206.30769326 1.96296287 208.28726175 1.95725034 210.26683044 1.95161438 C218.73771033 1.92577121 227.20820215 1.89235043 235.67882347 1.81968594 C239.08040449 1.79316272 242.48196849 1.7785051 245.88362885 1.76659203 C247.45023215 1.75826244 249.01681792 1.74455078 250.58332062 1.72493935 C265.10371292 1.54549503 265.10371292 1.54549503 272.15625 5.01171875 C272.93355469 5.36234375 273.71085937 5.71296875 274.51171875 6.07421875 C282.36625758 10.09359896 282.36625758 10.09359896 285.15625 12.01171875 C285.15625 12.67171875 285.15625 13.33171875 285.15625 14.01171875 C286.14625 14.34171875 287.13625 14.67171875 288.15625 15.01171875 C288.15625 15.67171875 288.15625 16.33171875 288.15625 17.01171875 C288.81625 17.01171875 289.47625 17.01171875 290.15625 17.01171875 C290.15625 17.67171875 290.15625 18.33171875 290.15625 19.01171875 C291.14625 19.34171875 292.13625 19.67171875 293.15625 20.01171875 C294.875 22.41796875 294.875 22.41796875 296.65625 25.51171875 C297.2440625 26.51203125 297.831875 27.51234375 298.4375 28.54296875 C303.10026755 37.95328143 303.57194116 46.40199228 303.48217773 56.7722168 C303.47929667 58.37798962 303.47768573 59.98376514 303.47722816 61.58954048 C303.47186315 65.99139842 303.44708006 70.39296039 303.41862035 74.79472184 C303.39658965 78.5726871 303.38572144 82.35065265 303.3748309 86.12866396 C303.3383679 98.65148574 303.26365911 111.17395697 303.17868328 123.69653225 C303.15618806 127.02087291 303.13435453 130.3452174 303.11264801 133.66956329 C302.90567901 165.11887707 302.62752785 196.56737159 302.32203043 228.01586521 C302.22745795 237.80051483 302.13976086 247.58521821 302.05341727 257.36994344 C301.9686665 266.95041704 301.88012082 276.53085019 301.78840441 286.11125964 C301.73425432 291.77011303 301.6814866 297.42897011 301.6323719 303.08786964 C301.58671676 308.32807409 301.53633902 313.5682113 301.48216057 318.80833435 C301.46310904 320.72852655 301.44576476 322.64873651 301.4302063 324.56896019 C301.40883457 327.17399832 301.38144651 329.77890285 301.35243225 332.38386536 C301.3475632 333.15106221 301.34269414 333.91825905 301.33767754 334.70870429 C301.27040331 339.89756544 301.27040331 339.89756544 300.15625 341.01171875 C293.28223239 341.40124641 286.39332946 340.98913525 279.53515625 340.51171875 C270.14652543 339.91519433 260.77379161 339.85967163 251.36889648 339.88134766 C248.56553901 339.88677335 245.76233745 339.88132976 242.95898438 339.875 C241.14843715 339.87565988 239.33789002 339.87693918 237.52734375 339.87890625 C236.70326523 339.87688202 235.87918671 339.87485779 235.03013611 339.87277222 C222.29475647 339.9238852 212.02338936 343.34324687 201.15625 350.01171875 C199.66169037 347.02259949 200.02886757 344.31294525 200.02685547 340.97729492 C200.02512864 340.2426813 200.02340181 339.50806768 200.02162266 338.75119305 C200.01722812 336.26900266 200.02024756 333.78687897 200.0234375 331.3046875 C200.02237689 329.52116881 200.02099016 327.73765029 200.01930237 325.95413208 C200.01645777 321.06359797 200.02096662 316.17309578 200.02747726 311.28256607 C200.03125028 308.19898691 200.03331849 305.11541082 200.03494263 302.03182983 C200.05577258 268.29680383 200.25942064 234.56368269 200.56241608 200.83008194 C200.59329143 197.3755269 200.62321624 193.92096462 200.65301514 190.46640015 C200.70141074 184.91857044 200.75380968 179.37079026 200.80906487 173.82302475 C200.82874924 171.81772605 200.84759523 169.81241884 200.86535835 167.8071022 C201.05689932 146.53732781 201.62356885 125.27509896 202.15625 104.01171875 C201.20691526 104.00233308 200.25758053 103.99294741 199.27947807 103.98327732 C175.99134478 103.75289381 152.70325005 103.51887767 129.41518974 103.28122807 C118.15246017 103.16637523 106.88972161 103.05262833 95.62695312 102.94165039 C85.79024675 102.8447212 75.95356574 102.74554868 66.11690724 102.64387316 C60.92675662 102.59029904 55.73660099 102.53771799 50.54641342 102.48784065 C38.31297898 102.36969874 26.08011084 102.23018223 13.84741497 102.05055475 C11.12481549 102.01126512 8.40218531 101.97503522 5.67954254 101.93888474 C1.27743193 101.87837407 -3.12413286 101.80154507 -7.52576041 101.71273124 C-9.14423482 101.68200739 -10.76280419 101.65585946 -12.38143373 101.63484013 C-24.44854387 101.47207682 -35.07582072 100.29885749 -45.53125 93.82421875 C-46.14935547 93.45619141 -46.76746094 93.08816406 -47.40429688 92.70898438 C-48.89110774 91.82150812 -50.36855469 90.91837163 -51.84375 90.01171875 C-51.84375 89.35171875 -51.84375 88.69171875 -51.84375 88.01171875 C-52.50375 88.01171875 -53.16375 88.01171875 -53.84375 88.01171875 C-63.84583381 78.0292854 -69.6173793 65.32212169 -70.15625 51.19921875 C-69.88024095 39.34923017 -65.3031127 26.32323614 -57.84375 17.01171875 C-57.18375 17.01171875 -56.52375 17.01171875 -55.84375 17.01171875 C-55.51375 16.02171875 -55.18375 15.03171875 -54.84375 14.01171875 C-54.18375 14.01171875 -53.52375 14.01171875 -52.84375 14.01171875 C-52.84375 13.35171875 -52.84375 12.69171875 -52.84375 12.01171875 C-37.15825563 -0.88524329 -19.2033178 -0.27752374 0 0 Z " fill="#A8A8A8" transform="translate(863.84375,927.98828125)"https://robotics-smalabsa.github.io/peta/>
</svg>
